<?xml version="1.0" standalone="yes"?>

<svg version="1.1" viewBox="0.0 0.0 586.5616797900262 209.61154855643045" fill="none" stroke="none" stroke-linecap="square" stroke-miterlimit="10" xmlns="http://www.w3.org/2000/svg" xmlns:xlink="http://www.w3.org/1999/xlink"><clipPath id="p.0"><path d="m0 0l586.5617 0l0 209.61154l-586.5617 0l0 -209.61154z" clip-rule="nonzero"></path></clipPath><g clip-path="url(#p.0)"><path fill="#000000" fill-opacity="0.0" d="m0 0l586.5617 0l0 209.61154l-586.5617 0z" fill-rule="evenodd"></path><path fill="#d5a6bd" d="m7.1627297 41.092518l0 0c0 -18.079351 14.656212 -32.73556 32.73556 -32.73556l509.42654 0c8.682007 0 17.008423 3.4489155 23.147522 9.588025c6.139099 6.1391087 9.588013 14.465527 9.588013 23.147537l0 130.93832c0 18.079361 -14.656189 32.735565 -32.735535 32.735565l-509.42654 0c-18.079351 0 -32.73556 -14.656204 -32.73556 -32.735565z" fill-rule="evenodd"></path><path stroke="#000000" stroke-width="2.0" stroke-linejoin="round" stroke-linecap="butt" d="m7.1627297 41.092518l0 0c0 -18.079351 14.656212 -32.73556 32.73556 -32.73556l509.42654 0c8.682007 0 17.008423 3.4489155 23.147522 9.588025c6.139099 6.1391087 9.588013 14.465527 9.588013 23.147537l0 130.93832c0 18.079361 -14.656189 32.735565 -32.735535 32.735565l-509.42654 0c-18.079351 0 -32.73556 -14.656204 -32.73556 -32.735565z" fill-rule="evenodd"></path><path fill="#76a5af" d="m162.46489 78.3318l0 0c0 -3.1021347 2.5147858 -5.616905 5.616913 -5.616905l114.466965 0c1.4897156 0 2.918396 0.591774 3.9717712 1.6451492c1.0533752 1.0533752 1.6451416 2.4820633 1.6451416 3.971756l0 22.466972c0 3.1021347 -2.5147705 5.616905 -5.616913 5.616905l-114.466965 0c-3.102127 0 -5.616913 -2.5147705 -5.616913 -5.616905z" fill-rule="evenodd"></path><path stroke="#000000" stroke-width="2.0" stroke-linejoin="round" stroke-linecap="butt" d="m162.46489 78.3318l0 0c0 -3.1021347 2.5147858 -5.616905 5.616913 -5.616905l114.466965 0c1.4897156 0 2.918396 0.591774 3.9717712 1.6451492c1.0533752 1.0533752 1.6451416 2.4820633 1.6451416 3.971756l0 22.466972c0 3.1021347 -2.5147705 5.616905 -5.616913 5.616905l-114.466965 0c-3.102127 0 -5.616913 -2.5147705 -5.616913 -5.616905z" fill-rule="evenodd"></path><path fill="#000000" d="m186.35435 85.84716q-0.703125 0 -1.234375 0.28125q-0.53125 0.265625 -0.90625 0.765625q-0.359375 0.5 -0.546875 1.234375q-0.1875 0.71875 -0.1875 1.609375q0 0.921875 0.171875 1.640625q0.171875 0.703125 0.515625 1.1875q0.34375 0.484375 0.890625 0.75q0.546875 0.25 1.296875 0.25q0.6875 0 1.390625 -0.15625q0.703125 -0.15625 1.515625 -0.453125l0 2.03125q-0.375 0.15625 -0.75 0.265625q-0.359375 0.109375 -0.75 0.1875q-0.375 0.078125 -0.78125 0.109375q-0.390625 0.03125 -0.859375 0.03125q-1.3125 0 -2.28125 -0.421875q-0.96875 -0.421875 -1.609375 -1.1875q-0.625 -0.765625 -0.9375 -1.84375q-0.296875 -1.078125 -0.296875 -2.40625q0 -1.296875 0.34375 -2.375q0.359375 -1.078125 1.03125 -1.859375q0.6875 -0.78125 1.6875 -1.21875q1.0 -0.4375 2.296875 -0.4375q0.84375 0 1.703125 0.21875q0.859375 0.21875 1.640625 0.59375l-0.78125 1.96875q-0.640625 -0.3125 -1.296875 -0.53125q-0.640625 -0.234375 -1.265625 -0.234375zm15.0703125 3.84375q0 1.328125 -0.3125 2.421875q-0.296875 1.078125 -0.9375 1.859375q-0.625 0.765625 -1.59375 1.1875q-0.96875 0.421875 -2.28125 0.421875q-1.3125 0 -2.28125 -0.421875q-0.953125 -0.421875 -1.59375 -1.1875q-0.625 -0.78125 -0.9375 -1.875q-0.296875 -1.09375 -0.296875 -2.421875q0 -1.328125 0.296875 -2.40625q0.3125 -1.078125 0.9375 -1.84375q0.640625 -0.765625 1.609375 -1.1875q0.96875 -0.421875 2.28125 -0.421875q1.3125 0 2.265625 0.421875q0.96875 0.421875 1.59375 1.1875q0.640625 0.765625 0.9375 1.859375q0.3125 1.078125 0.3125 2.40625zm-7.75 0q0 0.90625 0.15625 1.625q0.15625 0.703125 0.484375 1.203125q0.328125 0.5 0.8125 0.765625q0.5 0.265625 1.171875 0.265625q0.703125 0 1.1875 -0.265625q0.5 -0.265625 0.8125 -0.765625q0.328125 -0.5 0.46875 -1.203125q0.15625 -0.71875 0.15625 -1.625q0 -0.890625 -0.15625 -1.609375q-0.140625 -0.71875 -0.46875 -1.21875q-0.3125 -0.5 -0.8125 -0.765625q-0.484375 -0.265625 -1.171875 -0.265625q-0.671875 0 -1.171875 0.265625q-0.5 0.265625 -0.828125 0.765625q-0.328125 0.5 -0.484375 1.21875q-0.15625 0.71875 -0.15625 1.609375zm19.765625 5.734375l-3.078125 0l-4.484375 -8.640625l-0.078125 0q0.046875 0.59375 0.078125 1.1875q0.03125 0.515625 0.046875 1.078125q0.03125 0.546875 0.03125 1.0l0 5.375l-2.171875 0l0 -11.421875l3.0625 0l4.484375 8.546875l0.046875 0q-0.03125 -0.59375 -0.0625 -1.171875q0 -0.25 -0.015625 -0.5q-0.015625 -0.265625 -0.03125 -0.53125q0 -0.265625 0 -0.5q0 -0.25 0 -0.4375l0 -5.40625l2.171875 0l0 11.421875zm8.75 -11.421875l2.453125 0l-3.5625 11.421875l-2.640625 0l-3.5625 -11.421875l2.453125 0l1.9375 6.875q0.03125 0.125 0.09375 0.4375q0.078125 0.3125 0.140625 0.6875q0.078125 0.375 0.140625 0.75q0.078125 0.375 0.125 0.640625q0.03125 -0.265625 0.09375 -0.640625q0.078125 -0.375 0.15625 -0.734375q0.078125 -0.375 0.15625 -0.6875q0.078125 -0.3125 0.109375 -0.453125l1.90625 -6.875zm14.4609375 2.546875q0 0.59375 -0.1875 1.078125q-0.1875 0.46875 -0.53125 0.828125q-0.328125 0.34375 -0.78125 0.59375q-0.4375 0.234375 -0.96875 0.359375l0 0.046875q1.390625 0.171875 2.09375 0.84375q0.71875 0.65625 0.71875 1.796875q0 0.75 -0.28125 1.390625q-0.265625 0.625 -0.828125 1.09375q-0.546875 0.46875 -1.40625 0.734375q-0.84375 0.265625 -1.984375 0.265625q-0.921875 0 -1.734375 -0.15625q-0.8125 -0.15625 -1.515625 -0.46875l0 -2.046875q0.34375 0.1875 0.734375 0.328125q0.390625 0.140625 0.78125 0.234375q0.390625 0.09375 0.765625 0.140625q0.390625 0.046875 0.71875 0.046875q0.671875 0 1.109375 -0.125q0.453125 -0.125 0.71875 -0.34375q0.265625 -0.234375 0.375 -0.546875q0.125 -0.3125 0.125 -0.6875q0 -0.359375 -0.15625 -0.640625q-0.140625 -0.28125 -0.46875 -0.484375q-0.3125 -0.203125 -0.84375 -0.3125q-0.515625 -0.109375 -1.28125 -0.109375l-0.8125 0l0 -1.6875l0.796875 0q0.71875 0 1.1875 -0.125q0.484375 -0.140625 0.765625 -0.359375q0.28125 -0.21875 0.390625 -0.515625q0.125 -0.296875 0.125 -0.640625q0 -0.609375 -0.375 -0.953125q-0.375 -0.34375 -1.203125 -0.34375q-0.375 0 -0.703125 0.078125q-0.3125 0.078125 -0.59375 0.1875q-0.28125 0.109375 -0.515625 0.25q-0.21875 0.140625 -0.40625 0.265625l-1.21875 -1.609375q0.328125 -0.234375 0.703125 -0.4375q0.390625 -0.203125 0.84375 -0.359375q0.453125 -0.15625 0.96875 -0.234375q0.53125 -0.09375 1.125 -0.09375q0.84375 0 1.53125 0.1875q0.703125 0.1875 1.1875 0.53125q0.5 0.34375 0.765625 0.859375q0.265625 0.5 0.265625 1.140625zm4.0 4.40625l-2.8125 -4.265625l2.703125 0l1.453125 2.625l1.46875 -2.625l2.703125 0l-2.84375 4.265625l2.96875 4.46875l-2.703125 0l-1.59375 -2.828125l-1.609375 2.828125l-2.703125 0l2.96875 -4.46875zm13.578125 -4.40625q0 0.59375 -0.1875 1.078125q-0.1875 0.46875 -0.53125 0.828125q-0.328125 0.34375 -0.78125 0.59375q-0.4375 0.234375 -0.96875 0.359375l0 0.046875q1.390625 0.171875 2.09375 0.84375q0.71875 0.65625 0.71875 1.796875q0 0.75 -0.28125 1.390625q-0.265625 0.625 -0.828125 1.09375q-0.546875 0.46875 -1.40625 0.734375q-0.84375 0.265625 -1.984375 0.265625q-0.921875 0 -1.734375 -0.15625q-0.8125 -0.15625 -1.515625 -0.46875l0 -2.046875q0.34375 0.1875 0.734375 0.328125q0.390625 0.140625 0.78125 0.234375q0.390625 0.09375 0.765625 0.140625q0.390625 0.046875 0.71875 0.046875q0.671875 0 1.109375 -0.125q0.453125 -0.125 0.71875 -0.34375q0.265625 -0.234375 0.375 -0.546875q0.125 -0.3125 0.125 -0.6875q0 -0.359375 -0.15625 -0.640625q-0.140625 -0.28125 -0.46875 -0.484375q-0.3125 -0.203125 -0.84375 -0.3125q-0.515625 -0.109375 -1.28125 -0.109375l-0.8125 0l0 -1.6875l0.796875 0q0.71875 0 1.1875 -0.125q0.484375 -0.140625 0.765625 -0.359375q0.28125 -0.21875 0.390625 -0.515625q0.125 -0.296875 0.125 -0.640625q0 -0.609375 -0.375 -0.953125q-0.375 -0.34375 -1.203125 -0.34375q-0.375 0 -0.703125 0.078125q-0.3125 0.078125 -0.59375 0.1875q-0.28125 0.109375 -0.515625 0.25q-0.21875 0.140625 -0.40625 0.265625l-1.21875 -1.609375q0.328125 -0.234375 0.703125 -0.4375q0.390625 -0.203125 0.84375 -0.359375q0.453125 -0.15625 0.96875 -0.234375q0.53125 -0.09375 1.125 -0.09375q0.84375 0 1.53125 0.1875q0.703125 0.1875 1.1875 0.53125q0.5 0.34375 0.765625 0.859375q0.265625 0.5 0.265625 1.140625zm7.5625153 11.40625l-6.6406403 0l0 -1.09375l6.6406403 0l0 1.09375zm6.359375 -2.53125l-2.421875 0l0 -6.609375q0 -0.203125 0 -0.484375q0.015625 -0.296875 0.015625 -0.59375q0.015625 -0.3125 0.03125 -0.625q0.015625 -0.3125 0.015625 -0.578125q-0.03125 0.046875 -0.125 0.140625q-0.09375 0.09375 -0.21875 0.21875q-0.109375 0.109375 -0.234375 0.234375q-0.125 0.109375 -0.25 0.203125l-1.3125 1.046875l-1.171875 -1.453125l3.6875 -2.921875l1.984375 0l0 11.421875z" fill-rule="nonzero"></path><path fill="#93c47d" d="m162.46555 44.11658l0 0c0 -3.102131 2.5147858 -5.616909 5.616913 -5.616909l114.46698 0c1.489685 0 2.9183655 0.5917816 3.9717407 1.645153c1.0533752 1.0533752 1.6451721 2.4820595 1.6451721 3.971756l0 22.466969c0 3.1021347 -2.514801 5.616913 -5.616913 5.616913l-114.46698 0c-3.102127 0 -5.616913 -2.5147781 -5.616913 -5.616913z" fill-rule="evenodd"></path><path stroke="#000000" stroke-width="2.0" stroke-linejoin="round" stroke-linecap="butt" d="m162.46555 44.11658l0 0c0 -3.102131 2.5147858 -5.616909 5.616913 -5.616909l114.46698 0c1.489685 0 2.9183655 0.5917816 3.9717407 1.645153c1.0533752 1.0533752 1.6451721 2.4820595 1.6451721 3.971756l0 22.466969c0 3.1021347 -2.514801 5.616913 -5.616913 5.616913l-114.46698 0c-3.102127 0 -5.616913 -2.5147781 -5.616913 -5.616913z" fill-rule="evenodd"></path><path fill="#000000" d="m186.35501 51.63194q-0.703125 0 -1.234375 0.28125q-0.53125 0.265625 -0.90625 0.765625q-0.359375 0.5 -0.546875 1.234375q-0.1875 0.71875 -0.1875 1.609375q0 0.921875 0.171875 1.640625q0.171875 0.703125 0.515625 1.1875q0.34375 0.484375 0.890625 0.75q0.546875 0.25 1.296875 0.25q0.6875 0 1.390625 -0.15625q0.703125 -0.15625 1.515625 -0.453125l0 2.03125q-0.375 0.15625 -0.75 0.265625q-0.359375 0.109375 -0.75 0.1875q-0.375 0.078125 -0.78125 0.109375q-0.390625 0.03125 -0.859375 0.03125q-1.3125 0 -2.28125 -0.421875q-0.96875 -0.421875 -1.609375 -1.1875q-0.625 -0.765625 -0.9375 -1.84375q-0.296875 -1.078125 -0.296875 -2.40625q0 -1.296875 0.34375 -2.375q0.359375 -1.078125 1.03125 -1.859375q0.6875 -0.78125 1.6875 -1.21875q1.0 -0.4375 2.296875 -0.4375q0.84375 0 1.703125 0.21875q0.859375 0.21875 1.640625 0.59375l-0.78125 1.96875q-0.640625 -0.3125 -1.296875 -0.53125q-0.640625 -0.234375 -1.265625 -0.234375zm15.0703125 3.84375q0 1.328125 -0.3125 2.421875q-0.296875 1.078125 -0.9375 1.859375q-0.625 0.765625 -1.59375 1.1875q-0.96875 0.421875 -2.28125 0.421875q-1.3125 0 -2.28125 -0.421875q-0.953125 -0.421875 -1.59375 -1.1875q-0.625 -0.78125 -0.9375 -1.875q-0.296875 -1.09375 -0.296875 -2.421875q0 -1.328125 0.296875 -2.40625q0.3125 -1.078125 0.9375 -1.84375q0.640625 -0.765625 1.609375 -1.1875q0.96875 -0.421875 2.28125 -0.421875q1.3125 0 2.265625 0.421875q0.96875 0.421875 1.59375 1.1875q0.640625 0.765625 0.9375 1.859375q0.3125 1.078125 0.3125 2.40625zm-7.75 0q0 0.90625 0.15625 1.625q0.15625 0.703125 0.484375 1.203125q0.328125 0.5 0.8125 0.765625q0.5 0.265625 1.171875 0.265625q0.703125 0 1.1875 -0.265625q0.5 -0.265625 0.8125 -0.765625q0.328125 -0.5 0.46875 -1.203125q0.15625 -0.71875 0.15625 -1.625q0 -0.890625 -0.15625 -1.609375q-0.140625 -0.71875 -0.46875 -1.21875q-0.3125 -0.5 -0.8125 -0.765625q-0.484375 -0.265625 -1.171875 -0.265625q-0.671875 0 -1.171875 0.265625q-0.5 0.265625 -0.828125 0.765625q-0.328125 0.5 -0.484375 1.21875q-0.15625 0.71875 -0.15625 1.609375zm19.765625 5.734375l-3.078125 0l-4.484375 -8.640625l-0.078125 0q0.046875 0.59375 0.078125 1.1875q0.03125 0.515625 0.046875 1.078125q0.03125 0.546875 0.03125 1.0l0 5.375l-2.171875 0l0 -11.421875l3.0625 0l4.484375 8.546875l0.046875 0q-0.03125 -0.59375 -0.0625 -1.171875q0 -0.25 -0.015625 -0.5q-0.015625 -0.265625 -0.03125 -0.53125q0 -0.265625 0 -0.5q0 -0.25 0 -0.4375l0 -5.40625l2.171875 0l0 11.421875zm8.75 -11.421875l2.453125 0l-3.5625 11.421875l-2.640625 0l-3.5625 -11.421875l2.453125 0l1.9375 6.875q0.03125 0.125 0.09375 0.4375q0.078125 0.3125 0.140625 0.6875q0.078125 0.375 0.140625 0.75q0.078125 0.375 0.125 0.640625q0.03125 -0.265625 0.09375 -0.640625q0.078125 -0.375 0.15625 -0.734375q0.078125 -0.375 0.15625 -0.6875q0.078125 -0.3125 0.109375 -0.453125l1.90625 -6.875zm12.9921875 11.421875l-2.421875 0l0 -6.609375q0 -0.203125 0 -0.484375q0.015625 -0.296875 0.015625 -0.59375q0.015625 -0.3125 0.03125 -0.625q0.015625 -0.3125 0.015625 -0.578125q-0.03125 0.046875 -0.125 0.140625q-0.09375 0.09375 -0.21875 0.21875q-0.109375 0.109375 -0.234375 0.234375q-0.125 0.109375 -0.25 0.203125l-1.3125 1.046875l-1.171875 -1.453125l3.6875 -2.921875l1.984375 0l0 11.421875zm5.46875 -4.46875l-2.8125 -4.265625l2.703125 0l1.453125 2.625l1.46875 -2.625l2.703125 0l-2.84375 4.265625l2.96875 4.46875l-2.703125 0l-1.59375 -2.828125l-1.609375 2.828125l-2.703125 0l2.96875 -4.46875zm12.109375 4.46875l-2.421875 0l0 -6.609375q0 -0.203125 0 -0.484375q0.015625 -0.296875 0.015625 -0.59375q0.015625 -0.3125 0.03125 -0.625q0.015625 -0.3125 0.015625 -0.578125q-0.03125 0.046875 -0.125 0.140625q-0.09375 0.09375 -0.21875 0.21875q-0.109375 0.109375 -0.234375 0.234375q-0.125 0.109375 -0.25 0.203125l-1.3125 1.046875l-1.171875 -1.453125l3.6875 -2.921875l1.984375 0l0 11.421875zm9.03125 2.53125l-6.640625 0l0 -1.09375l6.640625 0l0 1.09375zm6.359375 -2.53125l-2.421875 0l0 -6.609375q0 -0.203125 0 -0.484375q0.015625 -0.296875 0.015625 -0.59375q0.015625 -0.3125 0.03125 -0.625q0.015625 -0.3125 0.015625 -0.578125q-0.03125 0.046875 -0.125 0.140625q-0.09375 0.09375 -0.21875 0.21875q-0.109375 0.109375 -0.234375 0.234375q-0.125 0.109375 -0.25 0.203125l-1.3125 1.046875l-1.171875 -1.453125l3.6875 -2.921875l1.984375 0l0 11.421875z" fill-rule="nonzero"></path><path fill="#8e7cc3" d="m22.89009 112.27144l0 0c0 -3.1021347 2.5147781 -5.616913 5.616911 -5.616913l114.466965 0c1.4897003 0 2.9183807 0.5917816 3.971756 1.6451569c1.0533752 1.0533752 1.6451569 2.4820557 1.6451569 3.971756l0 22.466965c0 3.1021423 -2.5147858 5.616913 -5.616913 5.616913l-114.466965 0c-3.1021328 0 -5.616911 -2.5147705 -5.616911 -5.616913z" fill-rule="evenodd"></path><path stroke="#000000" stroke-width="2.0" stroke-linejoin="round" stroke-linecap="butt" d="m22.89009 112.27144l0 0c0 -3.1021347 2.5147781 -5.616913 5.616911 -5.616913l114.466965 0c1.4897003 0 2.9183807 0.5917816 3.971756 1.6451569c1.0533752 1.0533752 1.6451569 2.4820557 1.6451569 3.971756l0 22.466965c0 3.1021423 -2.5147858 5.616913 -5.616913 5.616913l-114.466965 0c-3.1021328 0 -5.616911 -2.5147705 -5.616911 -5.616913z" fill-rule="evenodd"></path><path fill="#000000" d="m46.77955 119.7868q-0.703125 0 -1.234375 0.28125q-0.53125 0.265625 -0.90625 0.765625q-0.359375 0.5 -0.546875 1.234375q-0.1875 0.71875 -0.1875 1.609375q0 0.921875 0.171875 1.640625q0.171875 0.703125 0.515625 1.1875q0.34375 0.484375 0.890625 0.75q0.546875 0.25 1.296875 0.25q0.6875 0 1.390625 -0.15625q0.703125 -0.15625 1.515625 -0.453125l0 2.0312424q-0.375 0.15625 -0.75 0.265625q-0.359375 0.109375 -0.75 0.1875q-0.375 0.078125 -0.78125 0.109375q-0.390625 0.03125 -0.859375 0.03125q-1.3125 0 -2.28125 -0.421875q-0.96875 -0.421875 -1.609375 -1.1874924q-0.625 -0.765625 -0.9375 -1.84375q-0.296875 -1.078125 -0.296875 -2.40625q0 -1.296875 0.34375 -2.375q0.359375 -1.078125 1.03125 -1.859375q0.6875 -0.78125 1.6875 -1.21875q1.0 -0.4375 2.296875 -0.4375q0.84375 0 1.703125 0.21875q0.859375 0.21875 1.640625 0.59375l-0.78125 1.96875q-0.640625 -0.3125 -1.296875 -0.53125q-0.640625 -0.234375 -1.265625 -0.234375zm15.0703125 3.84375q0 1.328125 -0.3125 2.421875q-0.296875 1.078125 -0.9375 1.859375q-0.625 0.7656174 -1.59375 1.1874924q-0.96875 0.421875 -2.28125 0.421875q-1.3125 0 -2.28125 -0.421875q-0.953125 -0.421875 -1.59375 -1.1874924q-0.625 -0.78125 -0.9375 -1.875q-0.296875 -1.09375 -0.296875 -2.421875q0 -1.328125 0.296875 -2.40625q0.3125 -1.078125 0.9375 -1.84375q0.640625 -0.765625 1.609375 -1.1875q0.96875 -0.421875 2.28125 -0.421875q1.3125 0 2.265625 0.421875q0.96875 0.421875 1.59375 1.1875q0.640625 0.765625 0.9375 1.859375q0.3125 1.078125 0.3125 2.40625zm-7.75 0q0 0.90625 0.15625 1.625q0.15625 0.703125 0.484375 1.203125q0.328125 0.5 0.8125 0.765625q0.5 0.265625 1.171875 0.265625q0.703125 0 1.1875 -0.265625q0.5 -0.265625 0.8125 -0.765625q0.328125 -0.5 0.46875 -1.203125q0.15625 -0.71875 0.15625 -1.625q0 -0.890625 -0.15625 -1.609375q-0.140625 -0.71875 -0.46875 -1.21875q-0.3125 -0.5 -0.8125 -0.765625q-0.484375 -0.265625 -1.171875 -0.265625q-0.671875 0 -1.171875 0.265625q-0.5 0.265625 -0.828125 0.765625q-0.328125 0.5 -0.484375 1.21875q-0.15625 0.71875 -0.15625 1.609375zm19.765625 5.7343674l-3.078125 0l-4.484375 -8.640617l-0.078125 0q0.046875 0.59375 0.078125 1.1875q0.03125 0.515625 0.046875 1.078125q0.03125 0.546875 0.03125 1.0l0 5.3749924l-2.171875 0l0 -11.421867l3.0625 0l4.484375 8.546875l0.046875 0q-0.03125 -0.59375 -0.0625 -1.171875q0 -0.25 -0.015625 -0.5q-0.015625 -0.265625 -0.03125 -0.53125q0 -0.265625 0 -0.5q0 -0.25 0 -0.4375l0 -5.40625l2.171875 0l0 11.421867zm8.75 -11.421867l2.453125 0l-3.5625 11.421867l-2.640625 0l-3.5625 -11.421867l2.453125 0l1.9375 6.875q0.03125 0.125 0.09375 0.4375q0.078125 0.3125 0.140625 0.6875q0.078125 0.375 0.140625 0.75q0.078125 0.375 0.125 0.640625q0.03125 -0.265625 0.09375 -0.640625q0.078125 -0.375 0.15625 -0.734375q0.078125 -0.375 0.15625 -0.6875q0.078125 -0.3125 0.109375 -0.453125l1.90625 -6.875zm14.4609375 2.546875q0 0.59375 -0.1875 1.078125q-0.1875 0.46875 -0.53125 0.828125q-0.328125 0.34375 -0.78125 0.59375q-0.4375 0.234375 -0.96875 0.359375l0 0.046875q1.390625 0.171875 2.09375 0.84375q0.71875 0.65625 0.71875 1.796875q0 0.75 -0.28125 1.390625q-0.265625 0.6249924 -0.828125 1.0937424q-0.546875 0.46875 -1.40625 0.734375q-0.84375 0.265625 -1.984375 0.265625q-0.921875 0 -1.734375 -0.15625q-0.8125 -0.15625 -1.515625 -0.46875l0 -2.0468674q0.34375 0.1875 0.734375 0.328125q0.390625 0.140625 0.78125 0.234375q0.390625 0.09375 0.765625 0.140625q0.390625 0.046875 0.71875 0.046875q0.671875 0 1.109375 -0.125q0.453125 -0.125 0.71875 -0.34375q0.265625 -0.234375 0.375 -0.546875q0.125 -0.3125 0.125 -0.6875q0 -0.359375 -0.15625 -0.640625q-0.140625 -0.28125 -0.46875 -0.484375q-0.3125 -0.203125 -0.84375 -0.3125q-0.515625 -0.109375 -1.28125 -0.109375l-0.8125 0l0 -1.6875l0.796875 0q0.71875 0 1.1875 -0.125q0.484375 -0.140625 0.765625 -0.359375q0.28125 -0.21875 0.390625 -0.515625q0.125 -0.296875 0.125 -0.640625q0 -0.609375 -0.375 -0.953125q-0.375 -0.34375 -1.203125 -0.34375q-0.375 0 -0.703125 0.078125q-0.3125 0.078125 -0.59375 0.1875q-0.28125 0.109375 -0.515625 0.25q-0.21875 0.140625 -0.40625 0.265625l-1.21875 -1.609375q0.328125 -0.234375 0.703125 -0.4375q0.390625 -0.203125 0.84375 -0.359375q0.453125 -0.15625 0.96875 -0.234375q0.53125 -0.09375 1.125 -0.09375q0.84375 0 1.53125 0.1875q0.703125 0.1875 1.1875 0.53125q0.5 0.34375 0.765625 0.859375q0.265625 0.5 0.265625 1.140625zm4.0 4.40625l-2.8125 -4.265625l2.703125 0l1.453125 2.625l1.46875 -2.625l2.703125 0l-2.84375 4.265625l2.96875 4.4687424l-2.703125 0l-1.59375 -2.8281174l-1.609375 2.8281174l-2.703125 0l2.96875 -4.4687424zm13.578125 -4.40625q0 0.59375 -0.1875 1.078125q-0.1875 0.46875 -0.53125 0.828125q-0.328125 0.34375 -0.78125 0.59375q-0.4375 0.234375 -0.96875 0.359375l0 0.046875q1.390625 0.171875 2.09375 0.84375q0.71875 0.65625 0.71875 1.796875q0 0.75 -0.28125 1.390625q-0.265625 0.6249924 -0.828125 1.0937424q-0.546875 0.46875 -1.40625 0.734375q-0.84375 0.265625 -1.984375 0.265625q-0.921875 0 -1.734375 -0.15625q-0.8125 -0.15625 -1.515625 -0.46875l0 -2.0468674q0.34375 0.1875 0.734375 0.328125q0.390625 0.140625 0.78125 0.234375q0.390625 0.09375 0.765625 0.140625q0.390625 0.046875 0.71875 0.046875q0.671875 0 1.109375 -0.125q0.453125 -0.125 0.71875 -0.34375q0.265625 -0.234375 0.375 -0.546875q0.125 -0.3125 0.125 -0.6875q0 -0.359375 -0.15625 -0.640625q-0.140625 -0.28125 -0.46875 -0.484375q-0.3125 -0.203125 -0.84375 -0.3125q-0.515625 -0.109375 -1.28125 -0.109375l-0.8125 0l0 -1.6875l0.796875 0q0.71875 0 1.1875 -0.125q0.484375 -0.140625 0.765625 -0.359375q0.28125 -0.21875 0.390625 -0.515625q0.125 -0.296875 0.125 -0.640625q0 -0.609375 -0.375 -0.953125q-0.375 -0.34375 -1.203125 -0.34375q-0.375 0 -0.703125 0.078125q-0.3125 0.078125 -0.59375 0.1875q-0.28125 0.109375 -0.515625 0.25q-0.21875 0.140625 -0.40625 0.265625l-1.21875 -1.609375q0.328125 -0.234375 0.703125 -0.4375q0.390625 -0.203125 0.84375 -0.359375q0.453125 -0.15625 0.96875 -0.234375q0.53125 -0.09375 1.125 -0.09375q0.84375 0 1.53125 0.1875q0.703125 0.1875 1.1875 0.53125q0.5 0.34375 0.765625 0.859375q0.265625 0.5 0.265625 1.140625zm7.5625 11.406242l-6.640625 0l0 -1.09375l6.640625 0l0 1.09375zm6.3593826 -2.53125l-2.4218826 0l0 -6.6093674q0 -0.203125 0 -0.484375q0.015625 -0.296875 0.015625 -0.59375q0.015625 -0.3125 0.03125 -0.625q0.015625 -0.3125 0.015625 -0.578125q-0.03125 0.046875 -0.125 0.140625q-0.09375 0.09375 -0.21875 0.21875q-0.109375 0.109375 -0.234375 0.234375q-0.125 0.109375 -0.25 0.203125l-1.3125 1.046875l-1.171875 -1.453125l3.6875 -2.921875l1.9843826 0l0 11.421867z" fill-rule="nonzero"></path><path fill="#93c47d" d="m22.890749 44.119205l0 0c0 -3.102131 2.5147762 -5.616909 5.616909 -5.616909l114.466965 0c1.4897003 0 2.9183807 0.5917816 3.971756 1.6451569c1.0533752 1.0533714 1.6451569 2.4820557 1.6451569 3.9717522l0 22.466969c0 3.1021347 -2.5147858 5.616913 -5.616913 5.616913l-114.466965 0c-3.1021328 0 -5.616909 -2.5147781 -5.616909 -5.616913z" fill-rule="evenodd"></path><path stroke="#000000" stroke-width="2.0" stroke-linejoin="round" stroke-linecap="butt" d="m22.890749 44.119205l0 0c0 -3.102131 2.5147762 -5.616909 5.616909 -5.616909l114.466965 0c1.4897003 0 2.9183807 0.5917816 3.971756 1.6451569c1.0533752 1.0533714 1.6451569 2.4820557 1.6451569 3.9717522l0 22.466969c0 3.1021347 -2.5147858 5.616913 -5.616913 5.616913l-114.466965 0c-3.1021328 0 -5.616909 -2.5147781 -5.616909 -5.616913z" fill-rule="evenodd"></path><path fill="#000000" d="m46.780205 51.634563q-0.703125 0 -1.234375 0.28125q-0.53125 0.265625 -0.90625 0.765625q-0.359375 0.5 -0.546875 1.234375q-0.1875 0.71875 -0.1875 1.609375q0 0.921875 0.171875 1.640625q0.171875 0.703125 0.515625 1.1875q0.34375 0.484375 0.890625 0.75q0.546875 0.25 1.296875 0.25q0.6875 0 1.390625 -0.15625q0.703125 -0.15625 1.515625 -0.453125l0 2.03125q-0.375 0.15625 -0.75 0.265625q-0.359375 0.109375 -0.75 0.1875q-0.375 0.078125 -0.78125 0.109375q-0.390625 0.03125 -0.859375 0.03125q-1.3125 0 -2.28125 -0.421875q-0.96875 -0.421875 -1.609375 -1.1875q-0.625 -0.765625 -0.9375 -1.84375q-0.296875 -1.078125 -0.296875 -2.40625q0 -1.296875 0.34375 -2.375q0.359375 -1.078125 1.03125 -1.859375q0.6875 -0.78125 1.6875 -1.21875q1.0 -0.4375 2.296875 -0.4375q0.84375 0 1.703125 0.21875q0.859375 0.21875 1.640625 0.59375l-0.78125 1.96875q-0.640625 -0.3125 -1.296875 -0.53125q-0.640625 -0.234375 -1.265625 -0.234375zm15.0703125 3.84375q0 1.328125 -0.3125 2.421875q-0.296875 1.078125 -0.9375 1.859375q-0.625 0.765625 -1.59375 1.1875q-0.96875 0.421875 -2.28125 0.421875q-1.3125 0 -2.28125 -0.421875q-0.953125 -0.421875 -1.59375 -1.1875q-0.625 -0.78125 -0.9375 -1.875q-0.296875 -1.09375 -0.296875 -2.421875q0 -1.328125 0.296875 -2.40625q0.3125 -1.078125 0.9375 -1.84375q0.640625 -0.765625 1.609375 -1.1875q0.96875 -0.421875 2.28125 -0.421875q1.3125 0 2.265625 0.421875q0.96875 0.421875 1.59375 1.1875q0.640625 0.765625 0.9375 1.859375q0.3125 1.078125 0.3125 2.40625zm-7.75 0q0 0.90625 0.15625 1.625q0.15625 0.703125 0.484375 1.203125q0.328125 0.5 0.8125 0.765625q0.5 0.265625 1.171875 0.265625q0.703125 0 1.1875 -0.265625q0.5 -0.265625 0.8125 -0.765625q0.328125 -0.5 0.46875 -1.203125q0.15625 -0.71875 0.15625 -1.625q0 -0.890625 -0.15625 -1.609375q-0.140625 -0.71875 -0.46875 -1.21875q-0.3125 -0.5 -0.8125 -0.765625q-0.484375 -0.265625 -1.171875 -0.265625q-0.671875 0 -1.171875 0.265625q-0.5 0.265625 -0.828125 0.765625q-0.328125 0.5 -0.484375 1.21875q-0.15625 0.71875 -0.15625 1.609375zm19.765625 5.734375l-3.078125 0l-4.484375 -8.640625l-0.078125 0q0.046875 0.59375 0.078125 1.1875q0.03125 0.515625 0.046875 1.078125q0.03125 0.546875 0.03125 1.0l0 5.375l-2.171875 0l0 -11.421875l3.0625 0l4.484375 8.546875l0.046875 0q-0.03125 -0.59375 -0.0625 -1.171875q0 -0.25 -0.015625 -0.5q-0.015625 -0.265625 -0.03125 -0.53125q0 -0.265625 0 -0.5q0 -0.25 0 -0.4375l0 -5.40625l2.171875 0l0 11.421875zm8.75 -11.421875l2.453125 0l-3.5625 11.421875l-2.640625 0l-3.5625 -11.421875l2.453125 0l1.9375 6.875q0.03125 0.125 0.09375 0.4375q0.078125 0.3125 0.140625 0.6875q0.078125 0.375 0.140625 0.75q0.078125 0.375 0.125 0.640625q0.03125 -0.265625 0.09375 -0.640625q0.078125 -0.375 0.15625 -0.734375q0.078125 -0.375 0.15625 -0.6875q0.078125 -0.3125 0.109375 -0.453125l1.90625 -6.875zm12.992195 11.421875l-2.421875 0l0 -6.609375q0 -0.203125 0 -0.484375q0.015625 -0.296875 0.015625 -0.59375q0.015625 -0.3125 0.03125 -0.625q0.015625 -0.3125 0.015625 -0.578125q-0.03125 0.046875 -0.125 0.140625q-0.09375 0.09375 -0.21875 0.21875q-0.109375 0.109375 -0.234375 0.234375q-0.125 0.109375 -0.25 0.203125l-1.3125 1.046875l-1.171875 -1.453125l3.6875 -2.921875l1.984375 0l0 11.421875zm5.46875 -4.46875l-2.8125 -4.265625l2.703125 0l1.453125 2.625l1.46875 -2.625l2.703125 0l-2.84375 4.265625l2.96875 4.46875l-2.703125 0l-1.59375 -2.828125l-1.609375 2.828125l-2.703125 0l2.96875 -4.46875zm12.109375 4.46875l-2.421875 0l0 -6.609375q0 -0.203125 0 -0.484375q0.015625 -0.296875 0.015625 -0.59375q0.015625 -0.3125 0.03125 -0.625q0.015625 -0.3125 0.015625 -0.578125q-0.03125 0.046875 -0.125 0.140625q-0.09375 0.09375 -0.21875 0.21875q-0.109375 0.109375 -0.234375 0.234375q-0.125 0.109375 -0.25 0.203125l-1.3125 1.046875l-1.171875 -1.453125l3.6875 -2.921875l1.984375 0l0 11.421875zm9.03125 2.53125l-6.640625 0l0 -1.09375l6.640625 0l0 1.09375zm6.359375 -2.53125l-2.421875 0l0 -6.609375q0 -0.203125 0 -0.484375q0.015625 -0.296875 0.015625 -0.59375q0.015625 -0.3125 0.03125 -0.625q0.015625 -0.3125 0.015625 -0.578125q-0.03125 0.046875 -0.125 0.140625q-0.09375 0.09375 -0.21875 0.21875q-0.109375 0.109375 -0.234375 0.234375q-0.125 0.109375 -0.25 0.203125l-1.3125 1.046875l-1.171875 -1.453125l3.6875 -2.921875l1.984375 0l0 11.421875z" fill-rule="nonzero"></path><path fill="#93c47d" d="m302.04034 78.19401l0 0c0 -3.1021347 2.514801 -5.616905 5.616913 -5.616905l114.46698 0c1.489685 0 2.9183655 0.591774 3.9717407 1.6451492c1.0533752 1.0533752 1.6451721 2.4820633 1.6451721 3.971756l0 22.466972c0 3.102127 -2.5147705 5.616905 -5.616913 5.616905l-114.46698 0c-3.1021118 0 -5.616913 -2.5147781 -5.616913 -5.616905z" fill-rule="evenodd"></path><path stroke="#000000" stroke-width="2.0" stroke-linejoin="round" stroke-linecap="butt" d="m302.04034 78.19401l0 0c0 -3.1021347 2.514801 -5.616905 5.616913 -5.616905l114.46698 0c1.489685 0 2.9183655 0.591774 3.9717407 1.6451492c1.0533752 1.0533752 1.6451721 2.4820633 1.6451721 3.971756l0 22.466972c0 3.102127 -2.5147705 5.616905 -5.616913 5.616905l-114.46698 0c-3.1021118 0 -5.616913 -2.5147781 -5.616913 -5.616905z" fill-rule="evenodd"></path><path fill="#000000" d="m325.9298 85.709366q-0.703125 0 -1.234375 0.28125q-0.53125 0.265625 -0.90625 0.765625q-0.359375 0.5 -0.546875 1.234375q-0.1875 0.71875 -0.1875 1.609375q0 0.921875 0.171875 1.640625q0.171875 0.703125 0.515625 1.1875q0.34375 0.484375 0.890625 0.75q0.546875 0.25 1.296875 0.25q0.6875 0 1.390625 -0.15625q0.703125 -0.15625 1.515625 -0.453125l0 2.03125q-0.375 0.15625 -0.75 0.265625q-0.359375 0.109375 -0.75 0.1875q-0.375 0.078125 -0.78125 0.109375q-0.390625 0.03125 -0.859375 0.03125q-1.3125 0 -2.28125 -0.421875q-0.96875 -0.421875 -1.609375 -1.1875q-0.625 -0.765625 -0.9375 -1.84375q-0.296875 -1.078125 -0.296875 -2.40625q0 -1.296875 0.34375 -2.375q0.359375 -1.078125 1.03125 -1.859375q0.6875 -0.78125 1.6875 -1.21875q1.0 -0.4375 2.296875 -0.4375q0.84375 0 1.703125 0.21875q0.859375 0.21875 1.640625 0.59375l-0.78125 1.96875q-0.640625 -0.3125 -1.296875 -0.53125q-0.640625 -0.234375 -1.265625 -0.234375zm15.0703125 3.84375q0 1.328125 -0.3125 2.421875q-0.296875 1.078125 -0.9375 1.859375q-0.625 0.765625 -1.59375 1.1875q-0.96875 0.421875 -2.28125 0.421875q-1.3125 0 -2.28125 -0.421875q-0.953125 -0.421875 -1.59375 -1.1875q-0.625 -0.78125 -0.9375 -1.875q-0.296875 -1.09375 -0.296875 -2.421875q0 -1.328125 0.296875 -2.40625q0.3125 -1.078125 0.9375 -1.84375q0.640625 -0.765625 1.609375 -1.1875q0.96875 -0.421875 2.28125 -0.421875q1.3125 0 2.265625 0.421875q0.96875 0.421875 1.59375 1.1875q0.640625 0.765625 0.9375 1.859375q0.3125 1.078125 0.3125 2.40625zm-7.75 0q0 0.90625 0.15625 1.625q0.15625 0.703125 0.484375 1.203125q0.328125 0.5 0.8125 0.765625q0.5 0.265625 1.171875 0.265625q0.703125 0 1.1875 -0.265625q0.5 -0.265625 0.8125 -0.765625q0.328125 -0.5 0.46875 -1.203125q0.15625 -0.71875 0.15625 -1.625q0 -0.890625 -0.15625 -1.609375q-0.140625 -0.71875 -0.46875 -1.21875q-0.3125 -0.5 -0.8125 -0.765625q-0.484375 -0.265625 -1.171875 -0.265625q-0.671875 0 -1.171875 0.265625q-0.5 0.265625 -0.828125 0.765625q-0.328125 0.5 -0.484375 1.21875q-0.15625 0.71875 -0.15625 1.609375zm19.765625 5.734375l-3.078125 0l-4.484375 -8.640625l-0.078125 0q0.046875 0.59375 0.078125 1.1875q0.03125 0.515625 0.046875 1.078125q0.03125 0.546875 0.03125 1.0l0 5.375l-2.171875 0l0 -11.421875l3.0625 0l4.484375 8.546875l0.046875 0q-0.03125 -0.59375 -0.0625 -1.171875q0 -0.25 -0.015625 -0.5q-0.015625 -0.265625 -0.03125 -0.53125q0 -0.265625 0 -0.5q0 -0.25 0 -0.4375l0 -5.40625l2.171875 0l0 11.421875zm8.75 -11.421875l2.453125 0l-3.5625 11.421875l-2.640625 0l-3.5625 -11.421875l2.453125 0l1.9375 6.875q0.03125 0.125 0.09375 0.4375q0.078125 0.3125 0.140625 0.6875q0.078125 0.375 0.140625 0.75q0.078125 0.375 0.125 0.640625q0.03125 -0.265625 0.09375 -0.640625q0.078125 -0.375 0.15625 -0.734375q0.078125 -0.375 0.15625 -0.6875q0.078125 -0.3125 0.109375 -0.453125l1.90625 -6.875zm12.9921875 11.421875l-2.421875 0l0 -6.609375q0 -0.203125 0 -0.484375q0.015625 -0.296875 0.015625 -0.59375q0.015625 -0.3125 0.03125 -0.625q0.015625 -0.3125 0.015625 -0.578125q-0.03125 0.046875 -0.125 0.140625q-0.09375 0.09375 -0.21875 0.21875q-0.109375 0.109375 -0.234375 0.234375q-0.125 0.109375 -0.25 0.203125l-1.3125 1.046875l-1.171875 -1.453125l3.6875 -2.921875l1.984375 0l0 11.421875zm5.46875 -4.46875l-2.8125 -4.265625l2.703125 0l1.453125 2.625l1.46875 -2.625l2.703125 0l-2.84375 4.265625l2.96875 4.46875l-2.703125 0l-1.59375 -2.828125l-1.609375 2.828125l-2.703125 0l2.96875 -4.46875zm12.109375 4.46875l-2.421875 0l0 -6.609375q0 -0.203125 0 -0.484375q0.015625 -0.296875 0.015625 -0.59375q0.015625 -0.3125 0.03125 -0.625q0.015625 -0.3125 0.015625 -0.578125q-0.03125 0.046875 -0.125 0.140625q-0.09375 0.09375 -0.21875 0.21875q-0.109375 0.109375 -0.234375 0.234375q-0.125 0.109375 -0.25 0.203125l-1.3125 1.046875l-1.171875 -1.453125l3.6875 -2.921875l1.984375 0l0 11.421875zm9.03125 2.53125l-6.640625 0l0 -1.09375l6.640625 0l0 1.09375zm6.359375 -2.53125l-2.421875 0l0 -6.609375q0 -0.203125 0 -0.484375q0.015625 -0.296875 0.015625 -0.59375q0.015625 -0.3125 0.03125 -0.625q0.015625 -0.3125 0.015625 -0.578125q-0.03125 0.046875 -0.125 0.140625q-0.09375 0.09375 -0.21875 0.21875q-0.109375 0.109375 -0.234375 0.234375q-0.125 0.109375 -0.25 0.203125l-1.3125 1.046875l-1.171875 -1.453125l3.6875 -2.921875l1.984375 0l0 11.421875z" fill-rule="nonzero"></path><path fill="#93c47d" d="m441.61514 79.52734l0 0c0 -3.1021347 2.514801 -5.616913 5.616913 -5.616913l114.46698 0c1.489685 0 2.918396 0.5917816 3.9717407 1.6451569c1.0534058 1.0533752 1.6451416 2.4820557 1.6451416 3.971756l0 22.466965c0 3.1021347 -2.5147705 5.616913 -5.6168823 5.616913l-114.46698 0c-3.1021118 0 -5.616913 -2.5147781 -5.616913 -5.616913z" fill-rule="evenodd"></path><path stroke="#000000" stroke-width="2.0" stroke-linejoin="round" stroke-linecap="butt" d="m441.61514 79.52734l0 0c0 -3.1021347 2.514801 -5.616913 5.616913 -5.616913l114.46698 0c1.489685 0 2.918396 0.5917816 3.9717407 1.6451569c1.0534058 1.0533752 1.6451416 2.4820557 1.6451416 3.971756l0 22.466965c0 3.1021347 -2.5147705 5.616913 -5.6168823 5.616913l-114.46698 0c-3.1021118 0 -5.616913 -2.5147781 -5.616913 -5.616913z" fill-rule="evenodd"></path><path fill="#000000" d="m465.5046 87.0427q-0.703125 0 -1.234375 0.28125q-0.53125 0.265625 -0.90625 0.765625q-0.359375 0.5 -0.546875 1.234375q-0.1875 0.71875 -0.1875 1.609375q0 0.921875 0.171875 1.640625q0.171875 0.703125 0.515625 1.1875q0.34375 0.484375 0.890625 0.75q0.546875 0.25 1.296875 0.25q0.6875 0 1.390625 -0.15625q0.703125 -0.15625 1.515625 -0.453125l0 2.03125q-0.375 0.15625 -0.75 0.265625q-0.359375 0.109375 -0.75 0.1875q-0.375 0.078125 -0.78125 0.109375q-0.390625 0.03125 -0.859375 0.03125q-1.3125 0 -2.28125 -0.421875q-0.96875 -0.421875 -1.609375 -1.1875q-0.625 -0.765625 -0.9375 -1.84375q-0.296875 -1.078125 -0.296875 -2.40625q0 -1.296875 0.34375 -2.375q0.359375 -1.078125 1.03125 -1.859375q0.6875 -0.78125 1.6875 -1.21875q1.0 -0.4375 2.296875 -0.4375q0.84375 0 1.703125 0.21875q0.859375 0.21875 1.640625 0.59375l-0.78125 1.96875q-0.640625 -0.3125 -1.296875 -0.53125q-0.640625 -0.234375 -1.265625 -0.234375zm15.0703125 3.84375q0 1.328125 -0.3125 2.421875q-0.296875 1.078125 -0.9375 1.859375q-0.625 0.765625 -1.59375 1.1875q-0.96875 0.421875 -2.28125 0.421875q-1.3125 0 -2.28125 -0.421875q-0.953125 -0.421875 -1.59375 -1.1875q-0.625 -0.78125 -0.9375 -1.875q-0.296875 -1.09375 -0.296875 -2.421875q0 -1.328125 0.296875 -2.40625q0.3125 -1.078125 0.9375 -1.84375q0.640625 -0.765625 1.609375 -1.1875q0.96875 -0.421875 2.28125 -0.421875q1.3125 0 2.265625 0.421875q0.96875 0.421875 1.59375 1.1875q0.640625 0.765625 0.9375 1.859375q0.3125 1.078125 0.3125 2.40625zm-7.75 0q0 0.90625 0.15625 1.625q0.15625 0.703125 0.484375 1.203125q0.328125 0.5 0.8125 0.765625q0.5 0.265625 1.171875 0.265625q0.703125 0 1.1875 -0.265625q0.5 -0.265625 0.8125 -0.765625q0.328125 -0.5 0.46875 -1.203125q0.15625 -0.71875 0.15625 -1.625q0 -0.890625 -0.15625 -1.609375q-0.140625 -0.71875 -0.46875 -1.21875q-0.3125 -0.5 -0.8125 -0.765625q-0.484375 -0.265625 -1.171875 -0.265625q-0.671875 0 -1.171875 0.265625q-0.5 0.265625 -0.828125 0.765625q-0.328125 0.5 -0.484375 1.21875q-0.15625 0.71875 -0.15625 1.609375zm19.765625 5.734375l-3.078125 0l-4.484375 -8.640625l-0.078125 0q0.046875 0.59375 0.078125 1.1875q0.03125 0.515625 0.046875 1.078125q0.03125 0.546875 0.03125 1.0l0 5.375l-2.171875 0l0 -11.421875l3.0625 0l4.484375 8.546875l0.046875 0q-0.03125 -0.59375 -0.0625 -1.171875q0 -0.25 -0.015625 -0.5q-0.015625 -0.265625 -0.03125 -0.53125q0 -0.265625 0 -0.5q0 -0.25 0 -0.4375l0 -5.40625l2.171875 0l0 11.421875zm8.75 -11.421875l2.453125 0l-3.5625 11.421875l-2.640625 0l-3.5625 -11.421875l2.453125 0l1.9375 6.875q0.03125 0.125 0.09375 0.4375q0.078125 0.3125 0.140625 0.6875q0.078125 0.375 0.140625 0.75q0.078125 0.375 0.125 0.640625q0.03125 -0.265625 0.09375 -0.640625q0.078125 -0.375 0.15625 -0.734375q0.078125 -0.375 0.15625 -0.6875q0.078125 -0.3125 0.109375 -0.453125l1.90625 -6.875zm12.992218 11.421875l-2.4219055 0l0 -6.609375q0 -0.203125 0 -0.484375q0.015625 -0.296875 0.015625 -0.59375q0.015625 -0.3125 0.03125 -0.625q0.015625 -0.3125 0.015625 -0.578125q-0.03125 0.046875 -0.125 0.140625q-0.09375 0.09375 -0.21875 0.21875q-0.109375 0.109375 -0.234375 0.234375q-0.125 0.109375 -0.25 0.203125l-1.3125 1.046875l-1.171875 -1.453125l3.6875305 -2.921875l1.984375 0l0 11.421875zm5.46875 -4.46875l-2.8125 -4.265625l2.703125 0l1.453125 2.625l1.46875 -2.625l2.703125 0l-2.84375 4.265625l2.96875 4.46875l-2.703125 0l-1.59375 -2.828125l-1.609375 2.828125l-2.703125 0l2.96875 -4.46875zm12.109375 4.46875l-2.421875 0l0 -6.609375q0 -0.203125 0 -0.484375q0.015625 -0.296875 0.015625 -0.59375q0.015625 -0.3125 0.03125 -0.625q0.015625 -0.3125 0.015625 -0.578125q-0.03125 0.046875 -0.125 0.140625q-0.09375 0.09375 -0.21875 0.21875q-0.109375 0.109375 -0.234375 0.234375q-0.125 0.109375 -0.25 0.203125l-1.3125 1.046875l-1.171875 -1.453125l3.6875 -2.921875l1.984375 0l0 11.421875zm9.03125 2.53125l-6.640625 0l0 -1.09375l6.640625 0l0 1.09375zm6.359375 -2.53125l-2.421875 0l0 -6.609375q0 -0.203125 0 -0.484375q0.015625 -0.296875 0.015625 -0.59375q0.015625 -0.3125 0.03125 -0.625q0.015625 -0.3125 0.015625 -0.578125q-0.03125 0.046875 -0.125 0.140625q-0.09375 0.09375 -0.21875 0.21875q-0.109375 0.109375 -0.234375 0.234375q-0.125 0.109375 -0.25 0.203125l-1.3125 1.046875l-1.171875 -1.453125l3.6875 -2.921875l1.984375 0l0 11.421875z" fill-rule="nonzero"></path><path fill="#ffd966" d="m441.61514 44.114613l0 0c0 -3.102131 2.514801 -5.616909 5.616913 -5.616909l114.46698 0c1.489685 0 2.918396 0.5917816 3.9717407 1.645153c1.0534058 1.0533752 1.6451416 2.4820595 1.6451416 3.971756l0 22.466969c0 3.1021347 -2.5147705 5.616913 -5.6168823 5.616913l-114.46698 0c-3.1021118 0 -5.616913 -2.5147781 -5.616913 -5.616913z" fill-rule="evenodd"></path><path stroke="#000000" stroke-width="2.0" stroke-linejoin="round" stroke-linecap="butt" d="m441.61514 44.114613l0 0c0 -3.102131 2.514801 -5.616909 5.616913 -5.616909l114.46698 0c1.489685 0 2.918396 0.5917816 3.9717407 1.645153c1.0534058 1.0533752 1.6451416 2.4820595 1.6451416 3.971756l0 22.466969c0 3.1021347 -2.5147705 5.616913 -5.6168823 5.616913l-114.46698 0c-3.1021118 0 -5.616913 -2.5147781 -5.616913 -5.616913z" fill-rule="evenodd"></path><path fill="#000000" d="m464.196 55.16122l0.484375 0q1.015625 0 1.53125 -0.40625q0.53125 -0.40625 0.53125 -1.328125q0 -0.84375 -0.46875 -1.25q-0.46875 -0.40625 -1.453125 -0.40625l-0.625 0l0 3.390625zm5.0 -1.8125q0 0.75 -0.234375 1.4375q-0.21875 0.6875 -0.75 1.21875q-0.515625 0.515625 -1.359375 0.828125q-0.84375 0.3125 -2.09375 0.3125l-0.5625 0l0 4.0625l-2.421875 0l0 -11.421875l3.171875 0q1.109375 0 1.90625 0.25q0.796875 0.234375 1.3125 0.703125q0.53125 0.453125 0.78125 1.109375q0.25 0.65625 0.25 1.5zm11.8828125 2.125q0 1.328125 -0.3125 2.421875q-0.296875 1.078125 -0.9375 1.859375q-0.625 0.765625 -1.59375 1.1875q-0.96875 0.421875 -2.28125 0.421875q-1.3125 0 -2.28125 -0.421875q-0.953125 -0.421875 -1.59375 -1.1875q-0.625 -0.78125 -0.9375 -1.875q-0.296875 -1.09375 -0.296875 -2.421875q0 -1.328125 0.296875 -2.40625q0.3125 -1.078125 0.9375 -1.84375q0.640625 -0.765625 1.609375 -1.1875q0.96875 -0.421875 2.28125 -0.421875q1.3125 0 2.265625 0.421875q0.96875 0.421875 1.59375 1.1875q0.640625 0.765625 0.9375 1.859375q0.3125 1.078125 0.3125 2.40625zm-7.75 0q0 0.90625 0.15625 1.625q0.15625 0.703125 0.484375 1.203125q0.328125 0.5 0.8125 0.765625q0.5 0.265625 1.171875 0.265625q0.703125 0 1.1875 -0.265625q0.5 -0.265625 0.8125 -0.765625q0.328125 -0.5 0.46875 -1.203125q0.15625 -0.71875 0.15625 -1.625q0 -0.890625 -0.15625 -1.609375q-0.140625 -0.71875 -0.46875 -1.21875q-0.3125 -0.5 -0.8125 -0.765625q-0.484375 -0.265625 -1.171875 -0.265625q-0.671875 0 -1.171875 0.265625q-0.5 0.265625 -0.828125 0.765625q-0.328125 0.5 -0.484375 1.21875q-0.15625 0.71875 -0.15625 1.609375zm19.84375 0q0 1.328125 -0.3125 2.421875q-0.296875 1.078125 -0.9375 1.859375q-0.625 0.765625 -1.59375 1.1875q-0.96875 0.421875 -2.28125 0.421875q-1.3125 0 -2.28125 -0.421875q-0.953125 -0.421875 -1.59375 -1.1875q-0.625 -0.78125 -0.9375 -1.875q-0.296875 -1.09375 -0.296875 -2.421875q0 -1.328125 0.296875 -2.40625q0.3125 -1.078125 0.9375 -1.84375q0.640625 -0.765625 1.609375 -1.1875q0.96875 -0.421875 2.28125 -0.421875q1.3125 0 2.265625 0.421875q0.96875 0.421875 1.59375 1.1875q0.640625 0.765625 0.9375 1.859375q0.3125 1.078125 0.3125 2.40625zm-7.75 0q0 0.90625 0.15625 1.625q0.15625 0.703125 0.484375 1.203125q0.328125 0.5 0.8125 0.765625q0.5 0.265625 1.171875 0.265625q0.703125 0 1.1875 -0.265625q0.5 -0.265625 0.8125 -0.765625q0.328125 -0.5 0.46875 -1.203125q0.15625 -0.71875 0.15625 -1.625q0 -0.890625 -0.15625 -1.609375q-0.140625 -0.71875 -0.46875 -1.21875q-0.3125 -0.5 -0.8125 -0.765625q-0.484375 -0.265625 -1.171875 -0.265625q-0.671875 0 -1.171875 0.265625q-0.5 0.265625 -0.828125 0.765625q-0.328125 0.5 -0.484375 1.21875q-0.15625 0.71875 -0.15625 1.609375zm10.109375 5.734375l0 -11.421875l2.421875 0l0 9.421875l4.15625 0l0 2.0l-6.578125 0zm19.140656 -8.875q0 0.59375 -0.1875 1.078125q-0.1875 0.46875 -0.53125 0.828125q-0.328125 0.34375 -0.78125 0.59375q-0.4375 0.234375 -0.96875 0.359375l0 0.046875q1.390625 0.171875 2.09375 0.84375q0.71875 0.65625 0.71875 1.796875q0 0.75 -0.28125 1.390625q-0.265625 0.625 -0.828125 1.09375q-0.546875 0.46875 -1.40625 0.734375q-0.8437805 0.265625 -1.9844055 0.265625q-0.921875 0 -1.734375 -0.15625q-0.8125 -0.15625 -1.515625 -0.46875l0 -2.046875q0.34375 0.1875 0.734375 0.328125q0.390625 0.140625 0.78125 0.234375q0.390625 0.09375 0.765625 0.140625q0.390625 0.046875 0.71875 0.046875q0.671875 0 1.109375 -0.125q0.453125 -0.125 0.7187805 -0.34375q0.265625 -0.234375 0.375 -0.546875q0.125 -0.3125 0.125 -0.6875q0 -0.359375 -0.15625 -0.640625q-0.140625 -0.28125 -0.46878052 -0.484375q-0.3125 -0.203125 -0.84375 -0.3125q-0.515625 -0.109375 -1.28125 -0.109375l-0.8125 0l0 -1.6875l0.796875 0q0.71875 0 1.1875 -0.125q0.484375 -0.140625 0.765625 -0.359375q0.28128052 -0.21875 0.39065552 -0.515625q0.125 -0.296875 0.125 -0.640625q0 -0.609375 -0.37503052 -0.953125q-0.375 -0.34375 -1.203125 -0.34375q-0.375 0 -0.703125 0.078125q-0.3125 0.078125 -0.59375 0.1875q-0.28125 0.109375 -0.515625 0.25q-0.21875 0.140625 -0.40625 0.265625l-1.21875 -1.609375q0.328125 -0.234375 0.703125 -0.4375q0.390625 -0.203125 0.84375 -0.359375q0.453125 -0.15625 0.96875 -0.234375q0.53125 -0.09375 1.125 -0.09375q0.84375 0 1.5312805 0.1875q0.703125 0.1875 1.1875 0.53125q0.5 0.34375 0.765625 0.859375q0.265625 0.5 0.265625 1.140625zm4.0 4.40625l-2.8125 -4.265625l2.703125 0l1.453125 2.625l1.46875 -2.625l2.703125 0l-2.84375 4.265625l2.96875 4.46875l-2.703125 0l-1.59375 -2.828125l-1.609375 2.828125l-2.703125 0l2.96875 -4.46875zm13.578125 -4.40625q0 0.59375 -0.1875 1.078125q-0.1875 0.46875 -0.53125 0.828125q-0.328125 0.34375 -0.78125 0.59375q-0.4375 0.234375 -0.96875 0.359375l0 0.046875q1.390625 0.171875 2.09375 0.84375q0.71875 0.65625 0.71875 1.796875q0 0.75 -0.28125 1.390625q-0.265625 0.625 -0.828125 1.09375q-0.546875 0.46875 -1.40625 0.734375q-0.84375 0.265625 -1.984375 0.265625q-0.921875 0 -1.734375 -0.15625q-0.8125 -0.15625 -1.515625 -0.46875l0 -2.046875q0.34375 0.1875 0.734375 0.328125q0.390625 0.140625 0.78125 0.234375q0.390625 0.09375 0.765625 0.140625q0.390625 0.046875 0.71875 0.046875q0.671875 0 1.109375 -0.125q0.453125 -0.125 0.71875 -0.34375q0.265625 -0.234375 0.375 -0.546875q0.125 -0.3125 0.125 -0.6875q0 -0.359375 -0.15625 -0.640625q-0.140625 -0.28125 -0.46875 -0.484375q-0.3125 -0.203125 -0.84375 -0.3125q-0.515625 -0.109375 -1.28125 -0.109375l-0.8125 0l0 -1.6875l0.796875 0q0.71875 0 1.1875 -0.125q0.484375 -0.140625 0.765625 -0.359375q0.28125 -0.21875 0.390625 -0.515625q0.125 -0.296875 0.125 -0.640625q0 -0.609375 -0.375 -0.953125q-0.375 -0.34375 -1.203125 -0.34375q-0.375 0 -0.703125 0.078125q-0.3125 0.078125 -0.59375 0.1875q-0.28125 0.109375 -0.515625 0.25q-0.21875 0.140625 -0.40625 0.265625l-1.21875 -1.609375q0.328125 -0.234375 0.703125 -0.4375q0.390625 -0.203125 0.84375 -0.359375q0.453125 -0.15625 0.96875 -0.234375q0.53125 -0.09375 1.125 -0.09375q0.84375 0 1.53125 0.1875q0.703125 0.1875 1.1875 0.53125q0.5 0.34375 0.765625 0.859375q0.265625 0.5 0.265625 1.140625zm7.5625 11.40625l-6.640625 0l0 -1.09375l6.640625 0l0 1.09375zm6.359375 -2.53125l-2.421875 0l0 -6.609375q0 -0.203125 0 -0.484375q0.015625 -0.296875 0.015625 -0.59375q0.015625 -0.3125 0.03125 -0.625q0.015625 -0.3125 0.015625 -0.578125q-0.03125 0.046875 -0.125 0.140625q-0.09375 0.09375 -0.21875 0.21875q-0.109375 0.109375 -0.234375 0.234375q-0.125 0.109375 -0.25 0.203125l-1.3125 1.046875l-1.171875 -1.453125l3.6875 -2.921875l1.984375 0l0 11.421875z" fill-rule="nonzero"></path><path fill="#b7b7b7" d="m231.76083 171.32393l0 0c0 -3.102127 2.5147705 -5.616913 5.6168976 -5.616913l114.466965 0c1.4897156 0 2.918396 0.5917816 3.9717712 1.6451569c1.0533752 1.0533752 1.6451416 2.4820557 1.6451416 3.971756l0 22.466965c0 3.1021423 -2.5147705 5.616913 -5.616913 5.616913l-114.466965 0c-3.102127 0 -5.6168976 -2.5147705 -5.6168976 -5.616913z" fill-rule="evenodd"></path><path stroke="#000000" stroke-width="2.0" stroke-linejoin="round" stroke-linecap="butt" d="m231.76083 171.32393l0 0c0 -3.102127 2.5147705 -5.616913 5.6168976 -5.616913l114.466965 0c1.4897156 0 2.918396 0.5917816 3.9717712 1.6451569c1.0533752 1.0533752 1.6451416 2.4820557 1.6451416 3.971756l0 22.466965c0 3.1021423 -2.5147705 5.616913 -5.616913 5.616913l-114.466965 0c-3.102127 0 -5.6168976 -2.5147705 -5.6168976 -5.616913z" fill-rule="evenodd"></path><path fill="#000000" d="m268.81042 178.8393q-0.703125 0 -1.234375 0.28125q-0.53125 0.265625 -0.90625 0.765625q-0.359375 0.5 -0.546875 1.234375q-0.1875 0.71875 -0.1875 1.609375q0 0.921875 0.171875 1.640625q0.171875 0.703125 0.515625 1.1875q0.34375 0.484375 0.890625 0.75q0.546875 0.25 1.296875 0.25q0.6875 0 1.390625 -0.15625q0.703125 -0.15625 1.515625 -0.453125l0 2.03125q-0.375 0.15625 -0.75 0.265625q-0.359375 0.109375 -0.75 0.1875q-0.375 0.078125 -0.78125 0.109375q-0.390625 0.03125 -0.859375 0.03125q-1.3125 0 -2.28125 -0.421875q-0.96875 -0.421875 -1.609375 -1.1875q-0.625 -0.765625 -0.9375 -1.84375q-0.296875 -1.078125 -0.296875 -2.40625q0 -1.296875 0.34375 -2.375q0.359375 -1.078125 1.03125 -1.859375q0.6875 -0.78125 1.6875 -1.21875q1.0 -0.4375 2.296875 -0.4375q0.84375 0 1.703125 0.21875q0.859375 0.21875 1.640625 0.59375l-0.78125 1.96875q-0.640625 -0.3125 -1.296875 -0.53125q-0.640625 -0.234375 -1.265625 -0.234375zm15.0703125 3.84375q0 1.328125 -0.3125 2.421875q-0.296875 1.078125 -0.9375 1.859375q-0.625 0.765625 -1.59375 1.1875q-0.96875 0.421875 -2.28125 0.421875q-1.3125 0 -2.28125 -0.421875q-0.953125 -0.421875 -1.59375 -1.1875q-0.625 -0.78125 -0.9375 -1.875q-0.296875 -1.09375 -0.296875 -2.421875q0 -1.328125 0.296875 -2.40625q0.3125 -1.078125 0.9375 -1.84375q0.640625 -0.765625 1.609375 -1.1875q0.96875 -0.421875 2.28125 -0.421875q1.3125 0 2.265625 0.421875q0.96875 0.421875 1.59375 1.1875q0.640625 0.765625 0.9375 1.859375q0.3125 1.078125 0.3125 2.40625zm-7.75 0q0 0.90625 0.15625 1.625q0.15625 0.703125 0.484375 1.203125q0.328125 0.5 0.8125 0.765625q0.5 0.265625 1.171875 0.265625q0.703125 0 1.1875 -0.265625q0.5 -0.265625 0.8125 -0.765625q0.328125 -0.5 0.46875 -1.203125q0.15625 -0.71875 0.15625 -1.625q0 -0.890625 -0.15625 -1.609375q-0.140625 -0.71875 -0.46875 -1.21875q-0.3125 -0.5 -0.8125 -0.765625q-0.484375 -0.265625 -1.171875 -0.265625q-0.671875 0 -1.171875 0.265625q-0.5 0.265625 -0.828125 0.765625q-0.328125 0.5 -0.484375 1.21875q-0.15625 0.71875 -0.15625 1.609375zm19.765625 5.734375l-3.078125 0l-4.484375 -8.640625l-0.078125 0q0.046875 0.59375 0.078125 1.1875q0.03125 0.515625 0.046875 1.078125q0.03125 0.546875 0.03125 1.0l0 5.375l-2.171875 0l0 -11.421875l3.0625 0l4.484375 8.546875l0.046875 0q-0.03125 -0.59375 -0.0625 -1.171875q0 -0.25 -0.015625 -0.5q-0.015625 -0.265625 -0.03125 -0.53125q0 -0.265625 0 -0.5q0 -0.25 0 -0.4375l0 -5.40625l2.171875 0l0 11.421875zm7.7344055 -9.578125q-0.703125 0 -1.234375 0.28125q-0.53125 0.265625 -0.90625 0.765625q-0.359375 0.5 -0.546875 1.234375q-0.1875 0.71875 -0.1875 1.609375q0 0.921875 0.171875 1.640625q0.171875 0.703125 0.515625 1.1875q0.34375 0.484375 0.890625 0.75q0.546875 0.25 1.296875 0.25q0.6875 0 1.390625 -0.15625q0.703125 -0.15625 1.515625 -0.453125l0 2.03125q-0.375 0.15625 -0.75 0.265625q-0.359375 0.109375 -0.75 0.1875q-0.375 0.078125 -0.78125 0.109375q-0.390625 0.03125 -0.859375 0.03125q-1.3125 0 -2.28125 -0.421875q-0.96875 -0.421875 -1.609375 -1.1875q-0.625 -0.765625 -0.9375 -1.84375q-0.296875 -1.078125 -0.296875 -2.40625q0 -1.296875 0.34375 -2.375q0.359375 -1.078125 1.03125 -1.859375q0.6875 -0.78125 1.6875 -1.21875q1.0 -0.4375 2.296875 -0.4375q0.84375 0 1.703125 0.21875q0.859375 0.21875 1.640625 0.59375l-0.78125 1.96875q-0.640625 -0.3125 -1.296875 -0.53125q-0.640625 -0.234375 -1.265625 -0.234375zm11.8515625 9.578125l-0.78125 -2.71875l-3.9375 0l-0.78125 2.71875l-2.453125 0l3.71875 -11.46875l2.953125 0l3.734375 11.46875l-2.453125 0zm-1.34375 -4.75l-0.734375 -2.5q-0.046875 -0.140625 -0.140625 -0.453125q-0.09375 -0.328125 -0.203125 -0.71875q-0.09375 -0.390625 -0.1875 -0.78125q-0.09375 -0.390625 -0.140625 -0.65625q-0.03125 0.171875 -0.078125 0.40625q-0.046875 0.234375 -0.125 0.5q-0.0625 0.25 -0.140625 0.515625q-0.0625 0.265625 -0.125 0.5q-0.0625 0.234375 -0.109375 0.421875q-0.046875 0.171875 -0.078125 0.265625l-0.71875 2.5l2.78125 0zm9.3984375 4.75l-2.421875 0l0 -9.40625l-2.859375 0l0 -2.015625l8.140625 0l0 2.015625l-2.859375 0l0 9.40625z" fill-rule="nonzero"></path><path fill="#000000" fill-opacity="0.0" d="m85.740486 140.35532l208.8819 25.354324" fill-rule="evenodd"></path><path stroke="#000000" stroke-width="2.0" stroke-linejoin="round" stroke-linecap="butt" d="m85.740486 140.35532l196.96933 23.908371" fill-rule="evenodd"></path><path fill="#000000" stroke="#000000" stroke-width="2.0" stroke-linecap="butt" d="m282.31177 167.54308l9.408112 -2.1857452l-8.6119995 -4.373047z" fill-rule="evenodd"></path><path fill="#000000" fill-opacity="0.0" d="m225.31529 106.41568l69.291336 59.307083" fill-rule="evenodd"></path><path stroke="#000000" stroke-width="2.0" stroke-linejoin="round" stroke-linecap="butt" d="m225.31529 106.41568l60.174698 51.50409" fill-rule="evenodd"></path><path fill="#000000" stroke="#000000" stroke-width="2.0" stroke-linecap="butt" d="m283.34192 160.42946l9.0434265 3.392105l-4.747284 -8.411514z" fill-rule="evenodd"></path><path fill="#000000" fill-opacity="0.0" d="m364.89075 106.277885l-70.26773 59.433067" fill-rule="evenodd"></path><path stroke="#000000" stroke-width="2.0" stroke-linejoin="round" stroke-linecap="butt" d="m364.89075 106.277885l-61.10553 51.6836" fill-rule="evenodd"></path><path fill="#000000" stroke="#000000" stroke-width="2.0" stroke-linecap="butt" d="m301.6519 155.43924l-4.7964783 8.38356l9.063171 -3.3390656z" fill-rule="evenodd"></path><path fill="#000000" fill-opacity="0.0" d="m504.46555 107.61122l-209.85828 58.11023" fill-rule="evenodd"></path><path stroke="#000000" stroke-width="2.0" stroke-linejoin="round" stroke-linecap="butt" d="m504.46555 107.61122l-198.29346 54.907913" fill-rule="evenodd"></path><path fill="#000000" stroke="#000000" stroke-width="2.0" stroke-linecap="butt" d="m305.29053 159.33546l-7.8654785 5.6057434l9.628632 0.7615814z" fill-rule="evenodd"></path><path fill="#000000" fill-opacity="0.0" d="m294.61154 8.356956l-208.88188 30.141731" fill-rule="evenodd"></path><path stroke="#000000" stroke-width="2.0" stroke-linejoin="round" stroke-linecap="butt" d="m294.61154 8.356956l-197.00491 28.42788" fill-rule="evenodd"></path><path fill="#000000" stroke="#000000" stroke-width="2.0" stroke-linecap="butt" d="m97.134834 33.515236l-8.511345 4.565872l9.454956 1.9733276z" fill-rule="evenodd"></path><path fill="#000000" fill-opacity="0.0" d="m294.61154 8.356956l-69.291336 30.141731" fill-rule="evenodd"></path><path stroke="#000000" stroke-width="2.0" stroke-linejoin="round" stroke-linecap="butt" d="m294.61154 8.356956l-58.28737 25.355007" fill-rule="evenodd"></path><path fill="#000000" stroke="#000000" stroke-width="2.0" stroke-linecap="butt" d="m235.00644 30.682695l-7.0051117 6.649706l9.640579 -0.59117126z" fill-rule="evenodd"></path><path fill="#000000" fill-opacity="0.0" d="m294.61154 8.356956l70.26773 64.220474" fill-rule="evenodd"></path><path stroke="#000000" stroke-width="2.0" stroke-linejoin="round" stroke-linecap="butt" d="m294.61154 8.356956l61.40985 56.12491" fill-rule="evenodd"></path><path fill="#000000" stroke="#000000" stroke-width="2.0" stroke-linecap="butt" d="m353.7928 66.92034l8.928253 3.6846008l-4.471039 -8.56155z" fill-rule="evenodd"></path><path fill="#000000" fill-opacity="0.0" d="m294.61154 8.356956l209.85828 30.141731" fill-rule="evenodd"></path><path stroke="#000000" stroke-width="2.0" stroke-linejoin="round" stroke-linecap="butt" d="m294.61154 8.356956l197.98016 28.435692" fill-rule="evenodd"></path><path fill="#000000" stroke="#000000" stroke-width="2.0" stroke-linecap="butt" d="m492.12207 40.062557l9.453644 -1.9795456l-8.514343 -4.560272z" fill-rule="evenodd"></path><path fill="#000000" fill-opacity="0.0" d="m294.6112 199.4078l0 5.3543396" fill-rule="evenodd"></path><path stroke="#000000" stroke-width="2.0" stroke-linejoin="round" stroke-linecap="butt" d="m294.6112 199.4078l0 5.3543396" fill-rule="evenodd"></path><path fill="#8e7cc3" d="m22.89009 78.19532l0 0c0 -3.1021347 2.5147781 -5.616905 5.616911 -5.616905l114.466965 0c1.4897003 0 2.9183807 0.591774 3.971756 1.6451492c1.0533752 1.0533752 1.6451569 2.4820633 1.6451569 3.971756l0 22.466972c0 3.102127 -2.5147858 5.616905 -5.616913 5.616905l-114.466965 0c-3.1021328 0 -5.616911 -2.5147781 -5.616911 -5.616905z" fill-rule="evenodd"></path><path stroke="#000000" stroke-width="2.0" stroke-linejoin="round" stroke-linecap="butt" d="m22.89009 78.19532l0 0c0 -3.1021347 2.5147781 -5.616905 5.616911 -5.616905l114.466965 0c1.4897003 0 2.9183807 0.591774 3.971756 1.6451492c1.0533752 1.0533752 1.6451569 2.4820633 1.6451569 3.971756l0 22.466972c0 3.102127 -2.5147858 5.616905 -5.616913 5.616905l-114.466965 0c-3.1021328 0 -5.616911 -2.5147781 -5.616911 -5.616905z" fill-rule="evenodd"></path><path fill="#000000" d="m46.77955 85.71068q-0.703125 0 -1.234375 0.28125q-0.53125 0.265625 -0.90625 0.765625q-0.359375 0.5 -0.546875 1.234375q-0.1875 0.71875 -0.1875 1.609375q0 0.921875 0.171875 1.640625q0.171875 0.703125 0.515625 1.1875q0.34375 0.484375 0.890625 0.75q0.546875 0.25 1.296875 0.25q0.6875 0 1.390625 -0.15625q0.703125 -0.15625 1.515625 -0.453125l0 2.03125q-0.375 0.15625 -0.75 0.265625q-0.359375 0.109375 -0.75 0.1875q-0.375 0.078125 -0.78125 0.109375q-0.390625 0.03125 -0.859375 0.03125q-1.3125 0 -2.28125 -0.421875q-0.96875 -0.421875 -1.609375 -1.1875q-0.625 -0.765625 -0.9375 -1.84375q-0.296875 -1.078125 -0.296875 -2.40625q0 -1.296875 0.34375 -2.375q0.359375 -1.078125 1.03125 -1.859375q0.6875 -0.78125 1.6875 -1.21875q1.0 -0.4375 2.296875 -0.4375q0.84375 0 1.703125 0.21875q0.859375 0.21875 1.640625 0.59375l-0.78125 1.96875q-0.640625 -0.3125 -1.296875 -0.53125q-0.640625 -0.234375 -1.265625 -0.234375zm15.0703125 3.84375q0 1.328125 -0.3125 2.421875q-0.296875 1.078125 -0.9375 1.859375q-0.625 0.765625 -1.59375 1.1875q-0.96875 0.421875 -2.28125 0.421875q-1.3125 0 -2.28125 -0.421875q-0.953125 -0.421875 -1.59375 -1.1875q-0.625 -0.78125 -0.9375 -1.875q-0.296875 -1.09375 -0.296875 -2.421875q0 -1.328125 0.296875 -2.40625q0.3125 -1.078125 0.9375 -1.84375q0.640625 -0.765625 1.609375 -1.1875q0.96875 -0.421875 2.28125 -0.421875q1.3125 0 2.265625 0.421875q0.96875 0.421875 1.59375 1.1875q0.640625 0.765625 0.9375 1.859375q0.3125 1.078125 0.3125 2.40625zm-7.75 0q0 0.90625 0.15625 1.625q0.15625 0.703125 0.484375 1.203125q0.328125 0.5 0.8125 0.765625q0.5 0.265625 1.171875 0.265625q0.703125 0 1.1875 -0.265625q0.5 -0.265625 0.8125 -0.765625q0.328125 -0.5 0.46875 -1.203125q0.15625 -0.71875 0.15625 -1.625q0 -0.890625 -0.15625 -1.609375q-0.140625 -0.71875 -0.46875 -1.21875q-0.3125 -0.5 -0.8125 -0.765625q-0.484375 -0.265625 -1.171875 -0.265625q-0.671875 0 -1.171875 0.265625q-0.5 0.265625 -0.828125 0.765625q-0.328125 0.5 -0.484375 1.21875q-0.15625 0.71875 -0.15625 1.609375zm19.765625 5.734375l-3.078125 0l-4.484375 -8.640625l-0.078125 0q0.046875 0.59375 0.078125 1.1875q0.03125 0.515625 0.046875 1.078125q0.03125 0.546875 0.03125 1.0l0 5.375l-2.171875 0l0 -11.421875l3.0625 0l4.484375 8.546875l0.046875 0q-0.03125 -0.59375 -0.0625 -1.171875q0 -0.25 -0.015625 -0.5q-0.015625 -0.265625 -0.03125 -0.53125q0 -0.265625 0 -0.5q0 -0.25 0 -0.4375l0 -5.40625l2.171875 0l0 11.421875zm8.75 -11.421875l2.453125 0l-3.5625 11.421875l-2.640625 0l-3.5625 -11.421875l2.453125 0l1.9375 6.875q0.03125 0.125 0.09375 0.4375q0.078125 0.3125 0.140625 0.6875q0.078125 0.375 0.140625 0.75q0.078125 0.375 0.125 0.640625q0.03125 -0.265625 0.09375 -0.640625q0.078125 -0.375 0.15625 -0.734375q0.078125 -0.375 0.15625 -0.6875q0.078125 -0.3125 0.109375 -0.453125l1.90625 -6.875zm14.4609375 2.546875q0 0.59375 -0.1875 1.078125q-0.1875 0.46875 -0.53125 0.828125q-0.328125 0.34375 -0.78125 0.59375q-0.4375 0.234375 -0.96875 0.359375l0 0.046875q1.390625 0.171875 2.09375 0.84375q0.71875 0.65625 0.71875 1.796875q0 0.75 -0.28125 1.390625q-0.265625 0.625 -0.828125 1.09375q-0.546875 0.46875 -1.40625 0.734375q-0.84375 0.265625 -1.984375 0.265625q-0.921875 0 -1.734375 -0.15625q-0.8125 -0.15625 -1.515625 -0.46875l0 -2.046875q0.34375 0.1875 0.734375 0.328125q0.390625 0.140625 0.78125 0.234375q0.390625 0.09375 0.765625 0.140625q0.390625 0.046875 0.71875 0.046875q0.671875 0 1.109375 -0.125q0.453125 -0.125 0.71875 -0.34375q0.265625 -0.234375 0.375 -0.546875q0.125 -0.3125 0.125 -0.6875q0 -0.359375 -0.15625 -0.640625q-0.140625 -0.28125 -0.46875 -0.484375q-0.3125 -0.203125 -0.84375 -0.3125q-0.515625 -0.109375 -1.28125 -0.109375l-0.8125 0l0 -1.6875l0.796875 0q0.71875 0 1.1875 -0.125q0.484375 -0.140625 0.765625 -0.359375q0.28125 -0.21875 0.390625 -0.515625q0.125 -0.296875 0.125 -0.640625q0 -0.609375 -0.375 -0.953125q-0.375 -0.34375 -1.203125 -0.34375q-0.375 0 -0.703125 0.078125q-0.3125 0.078125 -0.59375 0.1875q-0.28125 0.109375 -0.515625 0.25q-0.21875 0.140625 -0.40625 0.265625l-1.21875 -1.609375q0.328125 -0.234375 0.703125 -0.4375q0.390625 -0.203125 0.84375 -0.359375q0.453125 -0.15625 0.96875 -0.234375q0.53125 -0.09375 1.125 -0.09375q0.84375 0 1.53125 0.1875q0.703125 0.1875 1.1875 0.53125q0.5 0.34375 0.765625 0.859375q0.265625 0.5 0.265625 1.140625zm4.0 4.40625l-2.8125 -4.265625l2.703125 0l1.453125 2.625l1.46875 -2.625l2.703125 0l-2.84375 4.265625l2.96875 4.46875l-2.703125 0l-1.59375 -2.828125l-1.609375 2.828125l-2.703125 0l2.96875 -4.46875zm13.578125 -4.40625q0 0.59375 -0.1875 1.078125q-0.1875 0.46875 -0.53125 0.828125q-0.328125 0.34375 -0.78125 0.59375q-0.4375 0.234375 -0.96875 0.359375l0 0.046875q1.390625 0.171875 2.09375 0.84375q0.71875 0.65625 0.71875 1.796875q0 0.75 -0.28125 1.390625q-0.265625 0.625 -0.828125 1.09375q-0.546875 0.46875 -1.40625 0.734375q-0.84375 0.265625 -1.984375 0.265625q-0.921875 0 -1.734375 -0.15625q-0.8125 -0.15625 -1.515625 -0.46875l0 -2.046875q0.34375 0.1875 0.734375 0.328125q0.390625 0.140625 0.78125 0.234375q0.390625 0.09375 0.765625 0.140625q0.390625 0.046875 0.71875 0.046875q0.671875 0 1.109375 -0.125q0.453125 -0.125 0.71875 -0.34375q0.265625 -0.234375 0.375 -0.546875q0.125 -0.3125 0.125 -0.6875q0 -0.359375 -0.15625 -0.640625q-0.140625 -0.28125 -0.46875 -0.484375q-0.3125 -0.203125 -0.84375 -0.3125q-0.515625 -0.109375 -1.28125 -0.109375l-0.8125 0l0 -1.6875l0.796875 0q0.71875 0 1.1875 -0.125q0.484375 -0.140625 0.765625 -0.359375q0.28125 -0.21875 0.390625 -0.515625q0.125 -0.296875 0.125 -0.640625q0 -0.609375 -0.375 -0.953125q-0.375 -0.34375 -1.203125 -0.34375q-0.375 0 -0.703125 0.078125q-0.3125 0.078125 -0.59375 0.1875q-0.28125 0.109375 -0.515625 0.25q-0.21875 0.140625 -0.40625 0.265625l-1.21875 -1.609375q0.328125 -0.234375 0.703125 -0.4375q0.390625 -0.203125 0.84375 -0.359375q0.453125 -0.15625 0.96875 -0.234375q0.53125 -0.09375 1.125 -0.09375q0.84375 0 1.53125 0.1875q0.703125 0.1875 1.1875 0.53125q0.5 0.34375 0.765625 0.859375q0.265625 0.5 0.265625 1.140625zm7.5625 11.40625l-6.640625 0l0 -1.09375l6.640625 0l0 1.09375zm6.3593826 -2.53125l-2.4218826 0l0 -6.609375q0 -0.203125 0 -0.484375q0.015625 -0.296875 0.015625 -0.59375q0.015625 -0.3125 0.03125 -0.625q0.015625 -0.3125 0.015625 -0.578125q-0.03125 0.046875 -0.125 0.140625q-0.09375 0.09375 -0.21875 0.21875q-0.109375 0.109375 -0.234375 0.234375q-0.125 0.109375 -0.25 0.203125l-1.3125 1.046875l-1.171875 -1.453125l3.6875 -2.921875l1.9843826 0l0 11.421875z" fill-rule="nonzero"></path></g></svg>

