<?xml version="1.0" standalone="yes"?>

<svg version="1.1" viewBox="0.0 0.0 586.5616797900262 187.7244094488189" fill="none" stroke="none" stroke-linecap="square" stroke-miterlimit="10" xmlns="http://www.w3.org/2000/svg" xmlns:xlink="http://www.w3.org/1999/xlink"><clipPath id="p.0"><path d="m0 0l586.5617 0l0 187.72441l-586.5617 0l0 -187.72441z" clip-rule="nonzero"></path></clipPath><g clip-path="url(#p.0)"><path fill="#000000" fill-opacity="0.0" d="m0 0l586.5617 0l0 187.72441l-586.5617 0z" fill-rule="evenodd"></path><path fill="#d5a6bd" d="m7.1627297 37.480896l0 0c0 -16.084707 13.039234 -29.12394 29.123941 -29.12394l516.6497 0c7.724182 0 15.131958 3.068406 20.59375 8.530206c5.461792 5.4617977 8.530212 12.869587 8.530212 20.593735l0 116.49228c0 16.084702 -13.039246 29.123932 -29.123962 29.123932l-516.6497 0c-16.084707 0 -29.123941 -13.03923 -29.123941 -29.123932z" fill-rule="evenodd"></path><path stroke="#000000" stroke-width="2.0" stroke-linejoin="round" stroke-linecap="butt" d="m7.1627297 37.480896l0 0c0 -16.084707 13.039234 -29.12394 29.123941 -29.12394l516.6497 0c7.724182 0 15.131958 3.068406 20.59375 8.530206c5.461792 5.4617977 8.530212 12.869587 8.530212 20.593735l0 116.49228c0 16.084702 -13.039246 29.123932 -29.123962 29.123932l-516.6497 0c-16.084707 0 -29.123941 -13.03923 -29.123941 -29.123932z" fill-rule="evenodd"></path><path fill="#76a5af" d="m162.46489 80.52078l0 0c0 -3.1021347 2.5147858 -5.616913 5.616913 -5.616913l114.466965 0c1.4897156 0 2.918396 0.5917816 3.9717712 1.6451569c1.0533752 1.0533752 1.6451416 2.4820557 1.6451416 3.971756l0 22.466965c0 3.1021347 -2.5147705 5.616913 -5.616913 5.616913l-114.466965 0c-3.102127 0 -5.616913 -2.5147781 -5.616913 -5.616913z" fill-rule="evenodd"></path><path stroke="#000000" stroke-width="2.0" stroke-linejoin="round" stroke-linecap="butt" d="m162.46489 80.52078l0 0c0 -3.1021347 2.5147858 -5.616913 5.616913 -5.616913l114.466965 0c1.4897156 0 2.918396 0.5917816 3.9717712 1.6451569c1.0533752 1.0533752 1.6451416 2.4820557 1.6451416 3.971756l0 22.466965c0 3.1021347 -2.5147705 5.616913 -5.616913 5.616913l-114.466965 0c-3.102127 0 -5.616913 -2.5147781 -5.616913 -5.616913z" fill-rule="evenodd"></path><path fill="#000000" d="m186.35435 88.03614q-0.703125 0 -1.234375 0.28125q-0.53125 0.265625 -0.90625 0.765625q-0.359375 0.5 -0.546875 1.234375q-0.1875 0.71875 -0.1875 1.609375q0 0.921875 0.171875 1.640625q0.171875 0.703125 0.515625 1.1875q0.34375 0.484375 0.890625 0.75q0.546875 0.25 1.296875 0.25q0.6875 0 1.390625 -0.15625q0.703125 -0.15625 1.515625 -0.453125l0 2.03125q-0.375 0.15625 -0.75 0.265625q-0.359375 0.109375 -0.75 0.1875q-0.375 0.078125 -0.78125 0.109375q-0.390625 0.03125 -0.859375 0.03125q-1.3125 0 -2.28125 -0.421875q-0.96875 -0.421875 -1.609375 -1.1875q-0.625 -0.765625 -0.9375 -1.84375q-0.296875 -1.078125 -0.296875 -2.40625q0 -1.296875 0.34375 -2.375q0.359375 -1.078125 1.03125 -1.859375q0.6875 -0.78125 1.6875 -1.21875q1.0 -0.4375 2.296875 -0.4375q0.84375 0 1.703125 0.21875q0.859375 0.21875 1.640625 0.59375l-0.78125 1.96875q-0.640625 -0.3125 -1.296875 -0.53125q-0.640625 -0.234375 -1.265625 -0.234375zm15.0703125 3.84375q0 1.328125 -0.3125 2.421875q-0.296875 1.078125 -0.9375 1.859375q-0.625 0.765625 -1.59375 1.1875q-0.96875 0.421875 -2.28125 0.421875q-1.3125 0 -2.28125 -0.421875q-0.953125 -0.421875 -1.59375 -1.1875q-0.625 -0.78125 -0.9375 -1.875q-0.296875 -1.09375 -0.296875 -2.421875q0 -1.328125 0.296875 -2.40625q0.3125 -1.078125 0.9375 -1.84375q0.640625 -0.765625 1.609375 -1.1875q0.96875 -0.421875 2.28125 -0.421875q1.3125 0 2.265625 0.421875q0.96875 0.421875 1.59375 1.1875q0.640625 0.765625 0.9375 1.859375q0.3125 1.078125 0.3125 2.40625zm-7.75 0q0 0.90625 0.15625 1.625q0.15625 0.703125 0.484375 1.203125q0.328125 0.5 0.8125 0.765625q0.5 0.265625 1.171875 0.265625q0.703125 0 1.1875 -0.265625q0.5 -0.265625 0.8125 -0.765625q0.328125 -0.5 0.46875 -1.203125q0.15625 -0.71875 0.15625 -1.625q0 -0.890625 -0.15625 -1.609375q-0.140625 -0.71875 -0.46875 -1.21875q-0.3125 -0.5 -0.8125 -0.765625q-0.484375 -0.265625 -1.171875 -0.265625q-0.671875 0 -1.171875 0.265625q-0.5 0.265625 -0.828125 0.765625q-0.328125 0.5 -0.484375 1.21875q-0.15625 0.71875 -0.15625 1.609375zm19.765625 5.734375l-3.078125 0l-4.484375 -8.640625l-0.078125 0q0.046875 0.59375 0.078125 1.1875q0.03125 0.515625 0.046875 1.078125q0.03125 0.546875 0.03125 1.0l0 5.375l-2.171875 0l0 -11.421875l3.0625 0l4.484375 8.546875l0.046875 0q-0.03125 -0.59375 -0.0625 -1.171875q0 -0.25 -0.015625 -0.5q-0.015625 -0.265625 -0.03125 -0.53125q0 -0.265625 0 -0.5q0 -0.25 0 -0.4375l0 -5.40625l2.171875 0l0 11.421875zm8.75 -11.421875l2.453125 0l-3.5625 11.421875l-2.640625 0l-3.5625 -11.421875l2.453125 0l1.9375 6.875q0.03125 0.125 0.09375 0.4375q0.078125 0.3125 0.140625 0.6875q0.078125 0.375 0.140625 0.75q0.078125 0.375 0.125 0.640625q0.03125 -0.265625 0.09375 -0.640625q0.078125 -0.375 0.15625 -0.734375q0.078125 -0.375 0.15625 -0.6875q0.078125 -0.3125 0.109375 -0.453125l1.90625 -6.875zm14.4609375 2.546875q0 0.59375 -0.1875 1.078125q-0.1875 0.46875 -0.53125 0.828125q-0.328125 0.34375 -0.78125 0.59375q-0.4375 0.234375 -0.96875 0.359375l0 0.046875q1.390625 0.171875 2.09375 0.84375q0.71875 0.65625 0.71875 1.796875q0 0.75 -0.28125 1.390625q-0.265625 0.625 -0.828125 1.09375q-0.546875 0.46875 -1.40625 0.734375q-0.84375 0.265625 -1.984375 0.265625q-0.921875 0 -1.734375 -0.15625q-0.8125 -0.15625 -1.515625 -0.46875l0 -2.046875q0.34375 0.1875 0.734375 0.328125q0.390625 0.140625 0.78125 0.234375q0.390625 0.09375 0.765625 0.140625q0.390625 0.046875 0.71875 0.046875q0.671875 0 1.109375 -0.125q0.453125 -0.125 0.71875 -0.34375q0.265625 -0.234375 0.375 -0.546875q0.125 -0.3125 0.125 -0.6875q0 -0.359375 -0.15625 -0.640625q-0.140625 -0.28125 -0.46875 -0.484375q-0.3125 -0.203125 -0.84375 -0.3125q-0.515625 -0.109375 -1.28125 -0.109375l-0.8125 0l0 -1.6875l0.796875 0q0.71875 0 1.1875 -0.125q0.484375 -0.140625 0.765625 -0.359375q0.28125 -0.21875 0.390625 -0.515625q0.125 -0.296875 0.125 -0.640625q0 -0.609375 -0.375 -0.953125q-0.375 -0.34375 -1.203125 -0.34375q-0.375 0 -0.703125 0.078125q-0.3125 0.078125 -0.59375 0.1875q-0.28125 0.109375 -0.515625 0.25q-0.21875 0.140625 -0.40625 0.265625l-1.21875 -1.609375q0.328125 -0.234375 0.703125 -0.4375q0.390625 -0.203125 0.84375 -0.359375q0.453125 -0.15625 0.96875 -0.234375q0.53125 -0.09375 1.125 -0.09375q0.84375 0 1.53125 0.1875q0.703125 0.1875 1.1875 0.53125q0.5 0.34375 0.765625 0.859375q0.265625 0.5 0.265625 1.140625zm4.0 4.40625l-2.8125 -4.265625l2.703125 0l1.453125 2.625l1.46875 -2.625l2.703125 0l-2.84375 4.265625l2.96875 4.46875l-2.703125 0l-1.59375 -2.828125l-1.609375 2.828125l-2.703125 0l2.96875 -4.46875zm13.578125 -4.40625q0 0.59375 -0.1875 1.078125q-0.1875 0.46875 -0.53125 0.828125q-0.328125 0.34375 -0.78125 0.59375q-0.4375 0.234375 -0.96875 0.359375l0 0.046875q1.390625 0.171875 2.09375 0.84375q0.71875 0.65625 0.71875 1.796875q0 0.75 -0.28125 1.390625q-0.265625 0.625 -0.828125 1.09375q-0.546875 0.46875 -1.40625 0.734375q-0.84375 0.265625 -1.984375 0.265625q-0.921875 0 -1.734375 -0.15625q-0.8125 -0.15625 -1.515625 -0.46875l0 -2.046875q0.34375 0.1875 0.734375 0.328125q0.390625 0.140625 0.78125 0.234375q0.390625 0.09375 0.765625 0.140625q0.390625 0.046875 0.71875 0.046875q0.671875 0 1.109375 -0.125q0.453125 -0.125 0.71875 -0.34375q0.265625 -0.234375 0.375 -0.546875q0.125 -0.3125 0.125 -0.6875q0 -0.359375 -0.15625 -0.640625q-0.140625 -0.28125 -0.46875 -0.484375q-0.3125 -0.203125 -0.84375 -0.3125q-0.515625 -0.109375 -1.28125 -0.109375l-0.8125 0l0 -1.6875l0.796875 0q0.71875 0 1.1875 -0.125q0.484375 -0.140625 0.765625 -0.359375q0.28125 -0.21875 0.390625 -0.515625q0.125 -0.296875 0.125 -0.640625q0 -0.609375 -0.375 -0.953125q-0.375 -0.34375 -1.203125 -0.34375q-0.375 0 -0.703125 0.078125q-0.3125 0.078125 -0.59375 0.1875q-0.28125 0.109375 -0.515625 0.25q-0.21875 0.140625 -0.40625 0.265625l-1.21875 -1.609375q0.328125 -0.234375 0.703125 -0.4375q0.390625 -0.203125 0.84375 -0.359375q0.453125 -0.15625 0.96875 -0.234375q0.53125 -0.09375 1.125 -0.09375q0.84375 0 1.53125 0.1875q0.703125 0.1875 1.1875 0.53125q0.5 0.34375 0.765625 0.859375q0.265625 0.5 0.265625 1.140625zm7.5625153 11.40625l-6.6406403 0l0 -1.09375l6.6406403 0l0 1.09375zm6.359375 -2.53125l-2.421875 0l0 -6.609375q0 -0.203125 0 -0.484375q0.015625 -0.296875 0.015625 -0.59375q0.015625 -0.3125 0.03125 -0.625q0.015625 -0.3125 0.015625 -0.578125q-0.03125 0.046875 -0.125 0.140625q-0.09375 0.09375 -0.21875 0.21875q-0.109375 0.109375 -0.234375 0.234375q-0.125 0.109375 -0.25 0.203125l-1.3125 1.046875l-1.171875 -1.453125l3.6875 -2.921875l1.984375 0l0 11.421875z" fill-rule="nonzero"></path><path fill="#93c47d" d="m162.46555 46.305557l0 0c0 -3.102131 2.5147858 -5.616909 5.616913 -5.616909l114.46698 0c1.489685 0 2.9183655 0.5917816 3.9717407 1.6451569c1.0533752 1.0533714 1.6451721 2.4820557 1.6451721 3.9717522l0 22.466965c0 3.1021347 -2.514801 5.616913 -5.616913 5.616913l-114.46698 0c-3.102127 0 -5.616913 -2.5147781 -5.616913 -5.616913z" fill-rule="evenodd"></path><path stroke="#000000" stroke-width="2.0" stroke-linejoin="round" stroke-linecap="butt" d="m162.46555 46.305557l0 0c0 -3.102131 2.5147858 -5.616909 5.616913 -5.616909l114.46698 0c1.489685 0 2.9183655 0.5917816 3.9717407 1.6451569c1.0533752 1.0533714 1.6451721 2.4820557 1.6451721 3.9717522l0 22.466965c0 3.1021347 -2.514801 5.616913 -5.616913 5.616913l-114.46698 0c-3.102127 0 -5.616913 -2.5147781 -5.616913 -5.616913z" fill-rule="evenodd"></path><path fill="#000000" d="m186.35501 53.820915q-0.703125 0 -1.234375 0.28125q-0.53125 0.265625 -0.90625 0.765625q-0.359375 0.5 -0.546875 1.234375q-0.1875 0.71875 -0.1875 1.609375q0 0.921875 0.171875 1.640625q0.171875 0.703125 0.515625 1.1875q0.34375 0.484375 0.890625 0.75q0.546875 0.25 1.296875 0.25q0.6875 0 1.390625 -0.15625q0.703125 -0.15625 1.515625 -0.453125l0 2.03125q-0.375 0.15625 -0.75 0.265625q-0.359375 0.109375 -0.75 0.1875q-0.375 0.078125 -0.78125 0.109375q-0.390625 0.03125 -0.859375 0.03125q-1.3125 0 -2.28125 -0.421875q-0.96875 -0.421875 -1.609375 -1.1875q-0.625 -0.765625 -0.9375 -1.84375q-0.296875 -1.078125 -0.296875 -2.40625q0 -1.296875 0.34375 -2.375q0.359375 -1.078125 1.03125 -1.859375q0.6875 -0.78125 1.6875 -1.21875q1.0 -0.4375 2.296875 -0.4375q0.84375 0 1.703125 0.21875q0.859375 0.21875 1.640625 0.59375l-0.78125 1.96875q-0.640625 -0.3125 -1.296875 -0.53125q-0.640625 -0.234375 -1.265625 -0.234375zm15.0703125 3.84375q0 1.328125 -0.3125 2.421875q-0.296875 1.078125 -0.9375 1.859375q-0.625 0.765625 -1.59375 1.1875q-0.96875 0.421875 -2.28125 0.421875q-1.3125 0 -2.28125 -0.421875q-0.953125 -0.421875 -1.59375 -1.1875q-0.625 -0.78125 -0.9375 -1.875q-0.296875 -1.09375 -0.296875 -2.421875q0 -1.328125 0.296875 -2.40625q0.3125 -1.078125 0.9375 -1.84375q0.640625 -0.765625 1.609375 -1.1875q0.96875 -0.421875 2.28125 -0.421875q1.3125 0 2.265625 0.421875q0.96875 0.421875 1.59375 1.1875q0.640625 0.765625 0.9375 1.859375q0.3125 1.078125 0.3125 2.40625zm-7.75 0q0 0.90625 0.15625 1.625q0.15625 0.703125 0.484375 1.203125q0.328125 0.5 0.8125 0.765625q0.5 0.265625 1.171875 0.265625q0.703125 0 1.1875 -0.265625q0.5 -0.265625 0.8125 -0.765625q0.328125 -0.5 0.46875 -1.203125q0.15625 -0.71875 0.15625 -1.625q0 -0.890625 -0.15625 -1.609375q-0.140625 -0.71875 -0.46875 -1.21875q-0.3125 -0.5 -0.8125 -0.765625q-0.484375 -0.265625 -1.171875 -0.265625q-0.671875 0 -1.171875 0.265625q-0.5 0.265625 -0.828125 0.765625q-0.328125 0.5 -0.484375 1.21875q-0.15625 0.71875 -0.15625 1.609375zm19.765625 5.734375l-3.078125 0l-4.484375 -8.640625l-0.078125 0q0.046875 0.59375 0.078125 1.1875q0.03125 0.515625 0.046875 1.078125q0.03125 0.546875 0.03125 1.0l0 5.375l-2.171875 0l0 -11.421875l3.0625 0l4.484375 8.546875l0.046875 0q-0.03125 -0.59375 -0.0625 -1.171875q0 -0.25 -0.015625 -0.5q-0.015625 -0.265625 -0.03125 -0.53125q0 -0.265625 0 -0.5q0 -0.25 0 -0.4375l0 -5.40625l2.171875 0l0 11.421875zm8.75 -11.421875l2.453125 0l-3.5625 11.421875l-2.640625 0l-3.5625 -11.421875l2.453125 0l1.9375 6.875q0.03125 0.125 0.09375 0.4375q0.078125 0.3125 0.140625 0.6875q0.078125 0.375 0.140625 0.75q0.078125 0.375 0.125 0.640625q0.03125 -0.265625 0.09375 -0.640625q0.078125 -0.375 0.15625 -0.734375q0.078125 -0.375 0.15625 -0.6875q0.078125 -0.3125 0.109375 -0.453125l1.90625 -6.875zm12.9921875 11.421875l-2.421875 0l0 -6.609375q0 -0.203125 0 -0.484375q0.015625 -0.296875 0.015625 -0.59375q0.015625 -0.3125 0.03125 -0.625q0.015625 -0.3125 0.015625 -0.578125q-0.03125 0.046875 -0.125 0.140625q-0.09375 0.09375 -0.21875 0.21875q-0.109375 0.109375 -0.234375 0.234375q-0.125 0.109375 -0.25 0.203125l-1.3125 1.046875l-1.171875 -1.453125l3.6875 -2.921875l1.984375 0l0 11.421875zm5.46875 -4.46875l-2.8125 -4.265625l2.703125 0l1.453125 2.625l1.46875 -2.625l2.703125 0l-2.84375 4.265625l2.96875 4.46875l-2.703125 0l-1.59375 -2.828125l-1.609375 2.828125l-2.703125 0l2.96875 -4.46875zm12.109375 4.46875l-2.421875 0l0 -6.609375q0 -0.203125 0 -0.484375q0.015625 -0.296875 0.015625 -0.59375q0.015625 -0.3125 0.03125 -0.625q0.015625 -0.3125 0.015625 -0.578125q-0.03125 0.046875 -0.125 0.140625q-0.09375 0.09375 -0.21875 0.21875q-0.109375 0.109375 -0.234375 0.234375q-0.125 0.109375 -0.25 0.203125l-1.3125 1.046875l-1.171875 -1.453125l3.6875 -2.921875l1.984375 0l0 11.421875zm9.03125 2.53125l-6.640625 0l0 -1.09375l6.640625 0l0 1.09375zm6.359375 -2.53125l-2.421875 0l0 -6.609375q0 -0.203125 0 -0.484375q0.015625 -0.296875 0.015625 -0.59375q0.015625 -0.3125 0.03125 -0.625q0.015625 -0.3125 0.015625 -0.578125q-0.03125 0.046875 -0.125 0.140625q-0.09375 0.09375 -0.21875 0.21875q-0.109375 0.109375 -0.234375 0.234375q-0.125 0.109375 -0.25 0.203125l-1.3125 1.046875l-1.171875 -1.453125l3.6875 -2.921875l1.984375 0l0 11.421875z" fill-rule="nonzero"></path><path fill="#8e7cc3" d="m22.89009 80.52078l0 0c0 -3.1021347 2.5147781 -5.616913 5.616911 -5.616913l114.466965 0c1.4897003 0 2.9183807 0.5917816 3.971756 1.6451569c1.0533752 1.0533752 1.6451569 2.4820557 1.6451569 3.971756l0 22.466965c0 3.1021347 -2.5147858 5.616913 -5.616913 5.616913l-114.466965 0c-3.1021328 0 -5.616911 -2.5147781 -5.616911 -5.616913z" fill-rule="evenodd"></path><path stroke="#000000" stroke-width="2.0" stroke-linejoin="round" stroke-linecap="butt" d="m22.89009 80.52078l0 0c0 -3.1021347 2.5147781 -5.616913 5.616911 -5.616913l114.466965 0c1.4897003 0 2.9183807 0.5917816 3.971756 1.6451569c1.0533752 1.0533752 1.6451569 2.4820557 1.6451569 3.971756l0 22.466965c0 3.1021347 -2.5147858 5.616913 -5.616913 5.616913l-114.466965 0c-3.1021328 0 -5.616911 -2.5147781 -5.616911 -5.616913z" fill-rule="evenodd"></path><path fill="#000000" d="m46.77955 88.03614q-0.703125 0 -1.234375 0.28125q-0.53125 0.265625 -0.90625 0.765625q-0.359375 0.5 -0.546875 1.234375q-0.1875 0.71875 -0.1875 1.609375q0 0.921875 0.171875 1.640625q0.171875 0.703125 0.515625 1.1875q0.34375 0.484375 0.890625 0.75q0.546875 0.25 1.296875 0.25q0.6875 0 1.390625 -0.15625q0.703125 -0.15625 1.515625 -0.453125l0 2.03125q-0.375 0.15625 -0.75 0.265625q-0.359375 0.109375 -0.75 0.1875q-0.375 0.078125 -0.78125 0.109375q-0.390625 0.03125 -0.859375 0.03125q-1.3125 0 -2.28125 -0.421875q-0.96875 -0.421875 -1.609375 -1.1875q-0.625 -0.765625 -0.9375 -1.84375q-0.296875 -1.078125 -0.296875 -2.40625q0 -1.296875 0.34375 -2.375q0.359375 -1.078125 1.03125 -1.859375q0.6875 -0.78125 1.6875 -1.21875q1.0 -0.4375 2.296875 -0.4375q0.84375 0 1.703125 0.21875q0.859375 0.21875 1.640625 0.59375l-0.78125 1.96875q-0.640625 -0.3125 -1.296875 -0.53125q-0.640625 -0.234375 -1.265625 -0.234375zm15.0703125 3.84375q0 1.328125 -0.3125 2.421875q-0.296875 1.078125 -0.9375 1.859375q-0.625 0.765625 -1.59375 1.1875q-0.96875 0.421875 -2.28125 0.421875q-1.3125 0 -2.28125 -0.421875q-0.953125 -0.421875 -1.59375 -1.1875q-0.625 -0.78125 -0.9375 -1.875q-0.296875 -1.09375 -0.296875 -2.421875q0 -1.328125 0.296875 -2.40625q0.3125 -1.078125 0.9375 -1.84375q0.640625 -0.765625 1.609375 -1.1875q0.96875 -0.421875 2.28125 -0.421875q1.3125 0 2.265625 0.421875q0.96875 0.421875 1.59375 1.1875q0.640625 0.765625 0.9375 1.859375q0.3125 1.078125 0.3125 2.40625zm-7.75 0q0 0.90625 0.15625 1.625q0.15625 0.703125 0.484375 1.203125q0.328125 0.5 0.8125 0.765625q0.5 0.265625 1.171875 0.265625q0.703125 0 1.1875 -0.265625q0.5 -0.265625 0.8125 -0.765625q0.328125 -0.5 0.46875 -1.203125q0.15625 -0.71875 0.15625 -1.625q0 -0.890625 -0.15625 -1.609375q-0.140625 -0.71875 -0.46875 -1.21875q-0.3125 -0.5 -0.8125 -0.765625q-0.484375 -0.265625 -1.171875 -0.265625q-0.671875 0 -1.171875 0.265625q-0.5 0.265625 -0.828125 0.765625q-0.328125 0.5 -0.484375 1.21875q-0.15625 0.71875 -0.15625 1.609375zm19.765625 5.734375l-3.078125 0l-4.484375 -8.640625l-0.078125 0q0.046875 0.59375 0.078125 1.1875q0.03125 0.515625 0.046875 1.078125q0.03125 0.546875 0.03125 1.0l0 5.375l-2.171875 0l0 -11.421875l3.0625 0l4.484375 8.546875l0.046875 0q-0.03125 -0.59375 -0.0625 -1.171875q0 -0.25 -0.015625 -0.5q-0.015625 -0.265625 -0.03125 -0.53125q0 -0.265625 0 -0.5q0 -0.25 0 -0.4375l0 -5.40625l2.171875 0l0 11.421875zm8.75 -11.421875l2.453125 0l-3.5625 11.421875l-2.640625 0l-3.5625 -11.421875l2.453125 0l1.9375 6.875q0.03125 0.125 0.09375 0.4375q0.078125 0.3125 0.140625 0.6875q0.078125 0.375 0.140625 0.75q0.078125 0.375 0.125 0.640625q0.03125 -0.265625 0.09375 -0.640625q0.078125 -0.375 0.15625 -0.734375q0.078125 -0.375 0.15625 -0.6875q0.078125 -0.3125 0.109375 -0.453125l1.90625 -6.875zm11.2734375 4.125q0.734375 0 1.359375 0.234375q0.640625 0.21875 1.109375 0.65625q0.46875 0.4375 0.734375 1.09375q0.265625 0.640625 0.265625 1.484375q0 0.9375 -0.296875 1.671875q-0.28125 0.734375 -0.84375 1.25q-0.5625 0.515625 -1.390625 0.796875q-0.828125 0.265625 -1.90625 0.265625q-0.4375 0 -0.859375 -0.046875q-0.421875 -0.03125 -0.8125 -0.109375q-0.375 -0.078125 -0.734375 -0.1875q-0.34375 -0.125 -0.625 -0.28125l0 -2.078125q0.28125 0.15625 0.640625 0.296875q0.359375 0.125 0.734375 0.234375q0.390625 0.09375 0.78125 0.15625q0.390625 0.046875 0.75 0.046875q1.046875 0 1.59375 -0.421875q0.546875 -0.4375 0.546875 -1.390625q0 -0.84375 -0.546875 -1.28125q-0.53125 -0.4375 -1.640625 -0.4375q-0.203125 0 -0.4375 0.03125q-0.234375 0.015625 -0.453125 0.0625q-0.21875 0.03125 -0.421875 0.078125q-0.203125 0.03125 -0.359375 0.078125l-0.953125 -0.515625l0.421875 -5.8125l6.03125 0l0 2.046875l-3.9375 0l-0.1875 2.234375q0.25 -0.046875 0.578125 -0.09375q0.34375 -0.0625 0.859375 -0.0625zm7.1875 2.828125l-2.8125 -4.265625l2.703125 0l1.453125 2.625l1.46875 -2.625l2.703125 0l-2.84375 4.265625l2.96875 4.46875l-2.703125 0l-1.59375 -2.828125l-1.609375 2.828125l-2.703125 0l2.96875 -4.46875zm10.390625 -2.828125q0.734375 0 1.359375 0.234375q0.640625 0.21875 1.109375 0.65625q0.46875 0.4375 0.734375 1.09375q0.265625 0.640625 0.265625 1.484375q0 0.9375 -0.296875 1.671875q-0.28125 0.734375 -0.84375 1.25q-0.5625 0.515625 -1.390625 0.796875q-0.828125 0.265625 -1.90625 0.265625q-0.4375 0 -0.859375 -0.046875q-0.421875 -0.03125 -0.8125 -0.109375q-0.375 -0.078125 -0.734375 -0.1875q-0.34375 -0.125 -0.625 -0.28125l0 -2.078125q0.28125 0.15625 0.640625 0.296875q0.359375 0.125 0.734375 0.234375q0.390625 0.09375 0.78125 0.15625q0.390625 0.046875 0.75 0.046875q1.046875 0 1.59375 -0.421875q0.546875 -0.4375 0.546875 -1.390625q0 -0.84375 -0.546875 -1.28125q-0.53125 -0.4375 -1.640625 -0.4375q-0.203125 0 -0.4375 0.03125q-0.234375 0.015625 -0.453125 0.0625q-0.21875 0.03125 -0.421875 0.078125q-0.203125 0.03125 -0.359375 0.078125l-0.953125 -0.515625l0.421875 -5.8125l6.03125 0l0 2.046875l-3.9375 0l-0.1875 2.234375q0.25 -0.046875 0.578125 -0.09375q0.34375 -0.0625 0.859375 -0.0625zm10.75 9.828125l-6.640625 0l0 -1.09375l6.640625 0l0 1.09375zm6.3593826 -2.53125l-2.4218826 0l0 -6.609375q0 -0.203125 0 -0.484375q0.015625 -0.296875 0.015625 -0.59375q0.015625 -0.3125 0.03125 -0.625q0.015625 -0.3125 0.015625 -0.578125q-0.03125 0.046875 -0.125 0.140625q-0.09375 0.09375 -0.21875 0.21875q-0.109375 0.109375 -0.234375 0.234375q-0.125 0.109375 -0.25 0.203125l-1.3125 1.046875l-1.171875 -1.453125l3.6875 -2.921875l1.9843826 0l0 11.421875z" fill-rule="nonzero"></path><path fill="#93c47d" d="m22.890749 46.305557l0 0c0 -3.102131 2.5147762 -5.616909 5.616909 -5.616909l114.466965 0c1.4897003 0 2.9183807 0.5917816 3.971756 1.6451569c1.0533752 1.0533714 1.6451569 2.4820557 1.6451569 3.9717522l0 22.466965c0 3.1021347 -2.5147858 5.616913 -5.616913 5.616913l-114.466965 0c-3.1021328 0 -5.616909 -2.5147781 -5.616909 -5.616913z" fill-rule="evenodd"></path><path stroke="#000000" stroke-width="2.0" stroke-linejoin="round" stroke-linecap="butt" d="m22.890749 46.305557l0 0c0 -3.102131 2.5147762 -5.616909 5.616909 -5.616909l114.466965 0c1.4897003 0 2.9183807 0.5917816 3.971756 1.6451569c1.0533752 1.0533714 1.6451569 2.4820557 1.6451569 3.9717522l0 22.466965c0 3.1021347 -2.5147858 5.616913 -5.616913 5.616913l-114.466965 0c-3.1021328 0 -5.616909 -2.5147781 -5.616909 -5.616913z" fill-rule="evenodd"></path><path fill="#000000" d="m46.780205 53.820915q-0.703125 0 -1.234375 0.28125q-0.53125 0.265625 -0.90625 0.765625q-0.359375 0.5 -0.546875 1.234375q-0.1875 0.71875 -0.1875 1.609375q0 0.921875 0.171875 1.640625q0.171875 0.703125 0.515625 1.1875q0.34375 0.484375 0.890625 0.75q0.546875 0.25 1.296875 0.25q0.6875 0 1.390625 -0.15625q0.703125 -0.15625 1.515625 -0.453125l0 2.03125q-0.375 0.15625 -0.75 0.265625q-0.359375 0.109375 -0.75 0.1875q-0.375 0.078125 -0.78125 0.109375q-0.390625 0.03125 -0.859375 0.03125q-1.3125 0 -2.28125 -0.421875q-0.96875 -0.421875 -1.609375 -1.1875q-0.625 -0.765625 -0.9375 -1.84375q-0.296875 -1.078125 -0.296875 -2.40625q0 -1.296875 0.34375 -2.375q0.359375 -1.078125 1.03125 -1.859375q0.6875 -0.78125 1.6875 -1.21875q1.0 -0.4375 2.296875 -0.4375q0.84375 0 1.703125 0.21875q0.859375 0.21875 1.640625 0.59375l-0.78125 1.96875q-0.640625 -0.3125 -1.296875 -0.53125q-0.640625 -0.234375 -1.265625 -0.234375zm15.0703125 3.84375q0 1.328125 -0.3125 2.421875q-0.296875 1.078125 -0.9375 1.859375q-0.625 0.765625 -1.59375 1.1875q-0.96875 0.421875 -2.28125 0.421875q-1.3125 0 -2.28125 -0.421875q-0.953125 -0.421875 -1.59375 -1.1875q-0.625 -0.78125 -0.9375 -1.875q-0.296875 -1.09375 -0.296875 -2.421875q0 -1.328125 0.296875 -2.40625q0.3125 -1.078125 0.9375 -1.84375q0.640625 -0.765625 1.609375 -1.1875q0.96875 -0.421875 2.28125 -0.421875q1.3125 0 2.265625 0.421875q0.96875 0.421875 1.59375 1.1875q0.640625 0.765625 0.9375 1.859375q0.3125 1.078125 0.3125 2.40625zm-7.75 0q0 0.90625 0.15625 1.625q0.15625 0.703125 0.484375 1.203125q0.328125 0.5 0.8125 0.765625q0.5 0.265625 1.171875 0.265625q0.703125 0 1.1875 -0.265625q0.5 -0.265625 0.8125 -0.765625q0.328125 -0.5 0.46875 -1.203125q0.15625 -0.71875 0.15625 -1.625q0 -0.890625 -0.15625 -1.609375q-0.140625 -0.71875 -0.46875 -1.21875q-0.3125 -0.5 -0.8125 -0.765625q-0.484375 -0.265625 -1.171875 -0.265625q-0.671875 0 -1.171875 0.265625q-0.5 0.265625 -0.828125 0.765625q-0.328125 0.5 -0.484375 1.21875q-0.15625 0.71875 -0.15625 1.609375zm19.765625 5.734375l-3.078125 0l-4.484375 -8.640625l-0.078125 0q0.046875 0.59375 0.078125 1.1875q0.03125 0.515625 0.046875 1.078125q0.03125 0.546875 0.03125 1.0l0 5.375l-2.171875 0l0 -11.421875l3.0625 0l4.484375 8.546875l0.046875 0q-0.03125 -0.59375 -0.0625 -1.171875q0 -0.25 -0.015625 -0.5q-0.015625 -0.265625 -0.03125 -0.53125q0 -0.265625 0 -0.5q0 -0.25 0 -0.4375l0 -5.40625l2.171875 0l0 11.421875zm8.75 -11.421875l2.453125 0l-3.5625 11.421875l-2.640625 0l-3.5625 -11.421875l2.453125 0l1.9375 6.875q0.03125 0.125 0.09375 0.4375q0.078125 0.3125 0.140625 0.6875q0.078125 0.375 0.140625 0.75q0.078125 0.375 0.125 0.640625q0.03125 -0.265625 0.09375 -0.640625q0.078125 -0.375 0.15625 -0.734375q0.078125 -0.375 0.15625 -0.6875q0.078125 -0.3125 0.109375 -0.453125l1.90625 -6.875zm12.992195 11.421875l-2.421875 0l0 -6.609375q0 -0.203125 0 -0.484375q0.015625 -0.296875 0.015625 -0.59375q0.015625 -0.3125 0.03125 -0.625q0.015625 -0.3125 0.015625 -0.578125q-0.03125 0.046875 -0.125 0.140625q-0.09375 0.09375 -0.21875 0.21875q-0.109375 0.109375 -0.234375 0.234375q-0.125 0.109375 -0.25 0.203125l-1.3125 1.046875l-1.171875 -1.453125l3.6875 -2.921875l1.984375 0l0 11.421875zm5.46875 -4.46875l-2.8125 -4.265625l2.703125 0l1.453125 2.625l1.46875 -2.625l2.703125 0l-2.84375 4.265625l2.96875 4.46875l-2.703125 0l-1.59375 -2.828125l-1.609375 2.828125l-2.703125 0l2.96875 -4.46875zm12.109375 4.46875l-2.421875 0l0 -6.609375q0 -0.203125 0 -0.484375q0.015625 -0.296875 0.015625 -0.59375q0.015625 -0.3125 0.03125 -0.625q0.015625 -0.3125 0.015625 -0.578125q-0.03125 0.046875 -0.125 0.140625q-0.09375 0.09375 -0.21875 0.21875q-0.109375 0.109375 -0.234375 0.234375q-0.125 0.109375 -0.25 0.203125l-1.3125 1.046875l-1.171875 -1.453125l3.6875 -2.921875l1.984375 0l0 11.421875zm9.03125 2.53125l-6.640625 0l0 -1.09375l6.640625 0l0 1.09375zm6.359375 -2.53125l-2.421875 0l0 -6.609375q0 -0.203125 0 -0.484375q0.015625 -0.296875 0.015625 -0.59375q0.015625 -0.3125 0.03125 -0.625q0.015625 -0.3125 0.015625 -0.578125q-0.03125 0.046875 -0.125 0.140625q-0.09375 0.09375 -0.21875 0.21875q-0.109375 0.109375 -0.234375 0.234375q-0.125 0.109375 -0.25 0.203125l-1.3125 1.046875l-1.171875 -1.453125l3.6875 -2.921875l1.984375 0l0 11.421875z" fill-rule="nonzero"></path><path fill="#93c47d" d="m302.04034 81.71894l0 0c0 -3.102127 2.514801 -5.616905 5.616913 -5.616905l114.46698 0c1.489685 0 2.9183655 0.5917816 3.9717407 1.6451569c1.0533752 1.0533752 1.6451721 2.4820557 1.6451721 3.9717484l0 22.466972c0 3.1021347 -2.5147705 5.616905 -5.616913 5.616905l-114.46698 0c-3.1021118 0 -5.616913 -2.5147705 -5.616913 -5.616905z" fill-rule="evenodd"></path><path stroke="#000000" stroke-width="2.0" stroke-linejoin="round" stroke-linecap="butt" d="m302.04034 81.71894l0 0c0 -3.102127 2.514801 -5.616905 5.616913 -5.616905l114.46698 0c1.489685 0 2.9183655 0.5917816 3.9717407 1.6451569c1.0533752 1.0533752 1.6451721 2.4820557 1.6451721 3.9717484l0 22.466972c0 3.1021347 -2.5147705 5.616905 -5.616913 5.616905l-114.46698 0c-3.1021118 0 -5.616913 -2.5147705 -5.616913 -5.616905z" fill-rule="evenodd"></path><path fill="#000000" d="m325.9298 89.2343q-0.703125 0 -1.234375 0.28125q-0.53125 0.265625 -0.90625 0.765625q-0.359375 0.5 -0.546875 1.234375q-0.1875 0.71875 -0.1875 1.609375q0 0.921875 0.171875 1.640625q0.171875 0.703125 0.515625 1.1875q0.34375 0.484375 0.890625 0.75q0.546875 0.25 1.296875 0.25q0.6875 0 1.390625 -0.15625q0.703125 -0.15625 1.515625 -0.453125l0 2.03125q-0.375 0.15625 -0.75 0.265625q-0.359375 0.109375 -0.75 0.1875q-0.375 0.078125 -0.78125 0.109375q-0.390625 0.03125 -0.859375 0.03125q-1.3125 0 -2.28125 -0.421875q-0.96875 -0.421875 -1.609375 -1.1875q-0.625 -0.765625 -0.9375 -1.84375q-0.296875 -1.078125 -0.296875 -2.40625q0 -1.296875 0.34375 -2.375q0.359375 -1.078125 1.03125 -1.859375q0.6875 -0.78125 1.6875 -1.21875q1.0 -0.4375 2.296875 -0.4375q0.84375 0 1.703125 0.21875q0.859375 0.21875 1.640625 0.59375l-0.78125 1.96875q-0.640625 -0.3125 -1.296875 -0.53125q-0.640625 -0.234375 -1.265625 -0.234375zm15.0703125 3.84375q0 1.328125 -0.3125 2.421875q-0.296875 1.078125 -0.9375 1.859375q-0.625 0.765625 -1.59375 1.1875q-0.96875 0.421875 -2.28125 0.421875q-1.3125 0 -2.28125 -0.421875q-0.953125 -0.421875 -1.59375 -1.1875q-0.625 -0.78125 -0.9375 -1.875q-0.296875 -1.09375 -0.296875 -2.421875q0 -1.328125 0.296875 -2.40625q0.3125 -1.078125 0.9375 -1.84375q0.640625 -0.765625 1.609375 -1.1875q0.96875 -0.421875 2.28125 -0.421875q1.3125 0 2.265625 0.421875q0.96875 0.421875 1.59375 1.1875q0.640625 0.765625 0.9375 1.859375q0.3125 1.078125 0.3125 2.40625zm-7.75 0q0 0.90625 0.15625 1.625q0.15625 0.703125 0.484375 1.203125q0.328125 0.5 0.8125 0.765625q0.5 0.265625 1.171875 0.265625q0.703125 0 1.1875 -0.265625q0.5 -0.265625 0.8125 -0.765625q0.328125 -0.5 0.46875 -1.203125q0.15625 -0.71875 0.15625 -1.625q0 -0.890625 -0.15625 -1.609375q-0.140625 -0.71875 -0.46875 -1.21875q-0.3125 -0.5 -0.8125 -0.765625q-0.484375 -0.265625 -1.171875 -0.265625q-0.671875 0 -1.171875 0.265625q-0.5 0.265625 -0.828125 0.765625q-0.328125 0.5 -0.484375 1.21875q-0.15625 0.71875 -0.15625 1.609375zm19.765625 5.734375l-3.078125 0l-4.484375 -8.640625l-0.078125 0q0.046875 0.59375 0.078125 1.1875q0.03125 0.515625 0.046875 1.078125q0.03125 0.546875 0.03125 1.0l0 5.375l-2.171875 0l0 -11.421875l3.0625 0l4.484375 8.546875l0.046875 0q-0.03125 -0.59375 -0.0625 -1.171875q0 -0.25 -0.015625 -0.5q-0.015625 -0.265625 -0.03125 -0.53125q0 -0.265625 0 -0.5q0 -0.25 0 -0.4375l0 -5.40625l2.171875 0l0 11.421875zm8.75 -11.421875l2.453125 0l-3.5625 11.421875l-2.640625 0l-3.5625 -11.421875l2.453125 0l1.9375 6.875q0.03125 0.125 0.09375 0.4375q0.078125 0.3125 0.140625 0.6875q0.078125 0.375 0.140625 0.75q0.078125 0.375 0.125 0.640625q0.03125 -0.265625 0.09375 -0.640625q0.078125 -0.375 0.15625 -0.734375q0.078125 -0.375 0.15625 -0.6875q0.078125 -0.3125 0.109375 -0.453125l1.90625 -6.875zm12.9921875 11.421875l-2.421875 0l0 -6.609375q0 -0.203125 0 -0.484375q0.015625 -0.296875 0.015625 -0.59375q0.015625 -0.3125 0.03125 -0.625q0.015625 -0.3125 0.015625 -0.578125q-0.03125 0.046875 -0.125 0.140625q-0.09375 0.09375 -0.21875 0.21875q-0.109375 0.109375 -0.234375 0.234375q-0.125 0.109375 -0.25 0.203125l-1.3125 1.046875l-1.171875 -1.453125l3.6875 -2.921875l1.984375 0l0 11.421875zm5.46875 -4.46875l-2.8125 -4.265625l2.703125 0l1.453125 2.625l1.46875 -2.625l2.703125 0l-2.84375 4.265625l2.96875 4.46875l-2.703125 0l-1.59375 -2.828125l-1.609375 2.828125l-2.703125 0l2.96875 -4.46875zm12.109375 4.46875l-2.421875 0l0 -6.609375q0 -0.203125 0 -0.484375q0.015625 -0.296875 0.015625 -0.59375q0.015625 -0.3125 0.03125 -0.625q0.015625 -0.3125 0.015625 -0.578125q-0.03125 0.046875 -0.125 0.140625q-0.09375 0.09375 -0.21875 0.21875q-0.109375 0.109375 -0.234375 0.234375q-0.125 0.109375 -0.25 0.203125l-1.3125 1.046875l-1.171875 -1.453125l3.6875 -2.921875l1.984375 0l0 11.421875zm9.03125 2.53125l-6.640625 0l0 -1.09375l6.640625 0l0 1.09375zm6.359375 -2.53125l-2.421875 0l0 -6.609375q0 -0.203125 0 -0.484375q0.015625 -0.296875 0.015625 -0.59375q0.015625 -0.3125 0.03125 -0.625q0.015625 -0.3125 0.015625 -0.578125q-0.03125 0.046875 -0.125 0.140625q-0.09375 0.09375 -0.21875 0.21875q-0.109375 0.109375 -0.234375 0.234375q-0.125 0.109375 -0.25 0.203125l-1.3125 1.046875l-1.171875 -1.453125l3.6875 -2.921875l1.984375 0l0 11.421875z" fill-rule="nonzero"></path><path fill="#93c47d" d="m441.61514 81.71894l0 0c0 -3.102127 2.514801 -5.616905 5.616913 -5.616905l114.46698 0c1.489685 0 2.918396 0.5917816 3.9717407 1.6451569c1.0534058 1.0533752 1.6451416 2.4820557 1.6451416 3.9717484l0 22.466972c0 3.1021347 -2.5147705 5.616905 -5.6168823 5.616905l-114.46698 0c-3.1021118 0 -5.616913 -2.5147705 -5.616913 -5.616905z" fill-rule="evenodd"></path><path stroke="#000000" stroke-width="2.0" stroke-linejoin="round" stroke-linecap="butt" d="m441.61514 81.71894l0 0c0 -3.102127 2.514801 -5.616905 5.616913 -5.616905l114.46698 0c1.489685 0 2.918396 0.5917816 3.9717407 1.6451569c1.0534058 1.0533752 1.6451416 2.4820557 1.6451416 3.9717484l0 22.466972c0 3.1021347 -2.5147705 5.616905 -5.6168823 5.616905l-114.46698 0c-3.1021118 0 -5.616913 -2.5147705 -5.616913 -5.616905z" fill-rule="evenodd"></path><path fill="#000000" d="m465.5046 89.2343q-0.703125 0 -1.234375 0.28125q-0.53125 0.265625 -0.90625 0.765625q-0.359375 0.5 -0.546875 1.234375q-0.1875 0.71875 -0.1875 1.609375q0 0.921875 0.171875 1.640625q0.171875 0.703125 0.515625 1.1875q0.34375 0.484375 0.890625 0.75q0.546875 0.25 1.296875 0.25q0.6875 0 1.390625 -0.15625q0.703125 -0.15625 1.515625 -0.453125l0 2.03125q-0.375 0.15625 -0.75 0.265625q-0.359375 0.109375 -0.75 0.1875q-0.375 0.078125 -0.78125 0.109375q-0.390625 0.03125 -0.859375 0.03125q-1.3125 0 -2.28125 -0.421875q-0.96875 -0.421875 -1.609375 -1.1875q-0.625 -0.765625 -0.9375 -1.84375q-0.296875 -1.078125 -0.296875 -2.40625q0 -1.296875 0.34375 -2.375q0.359375 -1.078125 1.03125 -1.859375q0.6875 -0.78125 1.6875 -1.21875q1.0 -0.4375 2.296875 -0.4375q0.84375 0 1.703125 0.21875q0.859375 0.21875 1.640625 0.59375l-0.78125 1.96875q-0.640625 -0.3125 -1.296875 -0.53125q-0.640625 -0.234375 -1.265625 -0.234375zm15.0703125 3.84375q0 1.328125 -0.3125 2.421875q-0.296875 1.078125 -0.9375 1.859375q-0.625 0.765625 -1.59375 1.1875q-0.96875 0.421875 -2.28125 0.421875q-1.3125 0 -2.28125 -0.421875q-0.953125 -0.421875 -1.59375 -1.1875q-0.625 -0.78125 -0.9375 -1.875q-0.296875 -1.09375 -0.296875 -2.421875q0 -1.328125 0.296875 -2.40625q0.3125 -1.078125 0.9375 -1.84375q0.640625 -0.765625 1.609375 -1.1875q0.96875 -0.421875 2.28125 -0.421875q1.3125 0 2.265625 0.421875q0.96875 0.421875 1.59375 1.1875q0.640625 0.765625 0.9375 1.859375q0.3125 1.078125 0.3125 2.40625zm-7.75 0q0 0.90625 0.15625 1.625q0.15625 0.703125 0.484375 1.203125q0.328125 0.5 0.8125 0.765625q0.5 0.265625 1.171875 0.265625q0.703125 0 1.1875 -0.265625q0.5 -0.265625 0.8125 -0.765625q0.328125 -0.5 0.46875 -1.203125q0.15625 -0.71875 0.15625 -1.625q0 -0.890625 -0.15625 -1.609375q-0.140625 -0.71875 -0.46875 -1.21875q-0.3125 -0.5 -0.8125 -0.765625q-0.484375 -0.265625 -1.171875 -0.265625q-0.671875 0 -1.171875 0.265625q-0.5 0.265625 -0.828125 0.765625q-0.328125 0.5 -0.484375 1.21875q-0.15625 0.71875 -0.15625 1.609375zm19.765625 5.734375l-3.078125 0l-4.484375 -8.640625l-0.078125 0q0.046875 0.59375 0.078125 1.1875q0.03125 0.515625 0.046875 1.078125q0.03125 0.546875 0.03125 1.0l0 5.375l-2.171875 0l0 -11.421875l3.0625 0l4.484375 8.546875l0.046875 0q-0.03125 -0.59375 -0.0625 -1.171875q0 -0.25 -0.015625 -0.5q-0.015625 -0.265625 -0.03125 -0.53125q0 -0.265625 0 -0.5q0 -0.25 0 -0.4375l0 -5.40625l2.171875 0l0 11.421875zm8.75 -11.421875l2.453125 0l-3.5625 11.421875l-2.640625 0l-3.5625 -11.421875l2.453125 0l1.9375 6.875q0.03125 0.125 0.09375 0.4375q0.078125 0.3125 0.140625 0.6875q0.078125 0.375 0.140625 0.75q0.078125 0.375 0.125 0.640625q0.03125 -0.265625 0.09375 -0.640625q0.078125 -0.375 0.15625 -0.734375q0.078125 -0.375 0.15625 -0.6875q0.078125 -0.3125 0.109375 -0.453125l1.90625 -6.875zm12.992218 11.421875l-2.4219055 0l0 -6.609375q0 -0.203125 0 -0.484375q0.015625 -0.296875 0.015625 -0.59375q0.015625 -0.3125 0.03125 -0.625q0.015625 -0.3125 0.015625 -0.578125q-0.03125 0.046875 -0.125 0.140625q-0.09375 0.09375 -0.21875 0.21875q-0.109375 0.109375 -0.234375 0.234375q-0.125 0.109375 -0.25 0.203125l-1.3125 1.046875l-1.171875 -1.453125l3.6875305 -2.921875l1.984375 0l0 11.421875zm5.46875 -4.46875l-2.8125 -4.265625l2.703125 0l1.453125 2.625l1.46875 -2.625l2.703125 0l-2.84375 4.265625l2.96875 4.46875l-2.703125 0l-1.59375 -2.828125l-1.609375 2.828125l-2.703125 0l2.96875 -4.46875zm12.109375 4.46875l-2.421875 0l0 -6.609375q0 -0.203125 0 -0.484375q0.015625 -0.296875 0.015625 -0.59375q0.015625 -0.3125 0.03125 -0.625q0.015625 -0.3125 0.015625 -0.578125q-0.03125 0.046875 -0.125 0.140625q-0.09375 0.09375 -0.21875 0.21875q-0.109375 0.109375 -0.234375 0.234375q-0.125 0.109375 -0.25 0.203125l-1.3125 1.046875l-1.171875 -1.453125l3.6875 -2.921875l1.984375 0l0 11.421875zm9.03125 2.53125l-6.640625 0l0 -1.09375l6.640625 0l0 1.09375zm6.359375 -2.53125l-2.421875 0l0 -6.609375q0 -0.203125 0 -0.484375q0.015625 -0.296875 0.015625 -0.59375q0.015625 -0.3125 0.03125 -0.625q0.015625 -0.3125 0.015625 -0.578125q-0.03125 0.046875 -0.125 0.140625q-0.09375 0.09375 -0.21875 0.21875q-0.109375 0.109375 -0.234375 0.234375q-0.125 0.109375 -0.25 0.203125l-1.3125 1.046875l-1.171875 -1.453125l3.6875 -2.921875l1.984375 0l0 11.421875z" fill-rule="nonzero"></path><path fill="#ffd966" d="m441.61514 46.306213l0 0c0 -3.102131 2.514801 -5.616909 5.616913 -5.616909l114.46698 0c1.489685 0 2.918396 0.5917816 3.9717407 1.6451569c1.0534058 1.0533714 1.6451416 2.4820557 1.6451416 3.9717522l0 22.466965c0 3.1021347 -2.5147705 5.616913 -5.6168823 5.616913l-114.46698 0c-3.1021118 0 -5.616913 -2.5147781 -5.616913 -5.616913z" fill-rule="evenodd"></path><path stroke="#000000" stroke-width="2.0" stroke-linejoin="round" stroke-linecap="butt" d="m441.61514 46.306213l0 0c0 -3.102131 2.514801 -5.616909 5.616913 -5.616909l114.46698 0c1.489685 0 2.918396 0.5917816 3.9717407 1.6451569c1.0534058 1.0533714 1.6451416 2.4820557 1.6451416 3.9717522l0 22.466965c0 3.1021347 -2.5147705 5.616913 -5.6168823 5.616913l-114.46698 0c-3.1021118 0 -5.616913 -2.5147781 -5.616913 -5.616913z" fill-rule="evenodd"></path><path fill="#000000" d="m464.196 57.35282l0.484375 0q1.015625 0 1.53125 -0.40625q0.53125 -0.40625 0.53125 -1.328125q0 -0.84375 -0.46875 -1.25q-0.46875 -0.40625 -1.453125 -0.40625l-0.625 0l0 3.390625zm5.0 -1.8125q0 0.75 -0.234375 1.4375q-0.21875 0.6875 -0.75 1.21875q-0.515625 0.515625 -1.359375 0.828125q-0.84375 0.3125 -2.09375 0.3125l-0.5625 0l0 4.0625l-2.421875 0l0 -11.421875l3.171875 0q1.109375 0 1.90625 0.25q0.796875 0.234375 1.3125 0.703125q0.53125 0.453125 0.78125 1.109375q0.25 0.65625 0.25 1.5zm11.8828125 2.125q0 1.328125 -0.3125 2.421875q-0.296875 1.078125 -0.9375 1.859375q-0.625 0.765625 -1.59375 1.1875q-0.96875 0.421875 -2.28125 0.421875q-1.3125 0 -2.28125 -0.421875q-0.953125 -0.421875 -1.59375 -1.1875q-0.625 -0.78125 -0.9375 -1.875q-0.296875 -1.09375 -0.296875 -2.421875q0 -1.328125 0.296875 -2.40625q0.3125 -1.078125 0.9375 -1.84375q0.640625 -0.765625 1.609375 -1.1875q0.96875 -0.421875 2.28125 -0.421875q1.3125 0 2.265625 0.421875q0.96875 0.421875 1.59375 1.1875q0.640625 0.765625 0.9375 1.859375q0.3125 1.078125 0.3125 2.40625zm-7.75 0q0 0.90625 0.15625 1.625q0.15625 0.703125 0.484375 1.203125q0.328125 0.5 0.8125 0.765625q0.5 0.265625 1.171875 0.265625q0.703125 0 1.1875 -0.265625q0.5 -0.265625 0.8125 -0.765625q0.328125 -0.5 0.46875 -1.203125q0.15625 -0.71875 0.15625 -1.625q0 -0.890625 -0.15625 -1.609375q-0.140625 -0.71875 -0.46875 -1.21875q-0.3125 -0.5 -0.8125 -0.765625q-0.484375 -0.265625 -1.171875 -0.265625q-0.671875 0 -1.171875 0.265625q-0.5 0.265625 -0.828125 0.765625q-0.328125 0.5 -0.484375 1.21875q-0.15625 0.71875 -0.15625 1.609375zm19.84375 0q0 1.328125 -0.3125 2.421875q-0.296875 1.078125 -0.9375 1.859375q-0.625 0.765625 -1.59375 1.1875q-0.96875 0.421875 -2.28125 0.421875q-1.3125 0 -2.28125 -0.421875q-0.953125 -0.421875 -1.59375 -1.1875q-0.625 -0.78125 -0.9375 -1.875q-0.296875 -1.09375 -0.296875 -2.421875q0 -1.328125 0.296875 -2.40625q0.3125 -1.078125 0.9375 -1.84375q0.640625 -0.765625 1.609375 -1.1875q0.96875 -0.421875 2.28125 -0.421875q1.3125 0 2.265625 0.421875q0.96875 0.421875 1.59375 1.1875q0.640625 0.765625 0.9375 1.859375q0.3125 1.078125 0.3125 2.40625zm-7.75 0q0 0.90625 0.15625 1.625q0.15625 0.703125 0.484375 1.203125q0.328125 0.5 0.8125 0.765625q0.5 0.265625 1.171875 0.265625q0.703125 0 1.1875 -0.265625q0.5 -0.265625 0.8125 -0.765625q0.328125 -0.5 0.46875 -1.203125q0.15625 -0.71875 0.15625 -1.625q0 -0.890625 -0.15625 -1.609375q-0.140625 -0.71875 -0.46875 -1.21875q-0.3125 -0.5 -0.8125 -0.765625q-0.484375 -0.265625 -1.171875 -0.265625q-0.671875 0 -1.171875 0.265625q-0.5 0.265625 -0.828125 0.765625q-0.328125 0.5 -0.484375 1.21875q-0.15625 0.71875 -0.15625 1.609375zm10.109375 5.734375l0 -11.421875l2.421875 0l0 9.421875l4.15625 0l0 2.0l-6.578125 0zm19.140656 -8.875q0 0.59375 -0.1875 1.078125q-0.1875 0.46875 -0.53125 0.828125q-0.328125 0.34375 -0.78125 0.59375q-0.4375 0.234375 -0.96875 0.359375l0 0.046875q1.390625 0.171875 2.09375 0.84375q0.71875 0.65625 0.71875 1.796875q0 0.75 -0.28125 1.390625q-0.265625 0.625 -0.828125 1.09375q-0.546875 0.46875 -1.40625 0.734375q-0.8437805 0.265625 -1.9844055 0.265625q-0.921875 0 -1.734375 -0.15625q-0.8125 -0.15625 -1.515625 -0.46875l0 -2.046875q0.34375 0.1875 0.734375 0.328125q0.390625 0.140625 0.78125 0.234375q0.390625 0.09375 0.765625 0.140625q0.390625 0.046875 0.71875 0.046875q0.671875 0 1.109375 -0.125q0.453125 -0.125 0.7187805 -0.34375q0.265625 -0.234375 0.375 -0.546875q0.125 -0.3125 0.125 -0.6875q0 -0.359375 -0.15625 -0.640625q-0.140625 -0.28125 -0.46878052 -0.484375q-0.3125 -0.203125 -0.84375 -0.3125q-0.515625 -0.109375 -1.28125 -0.109375l-0.8125 0l0 -1.6875l0.796875 0q0.71875 0 1.1875 -0.125q0.484375 -0.140625 0.765625 -0.359375q0.28128052 -0.21875 0.39065552 -0.515625q0.125 -0.296875 0.125 -0.640625q0 -0.609375 -0.37503052 -0.953125q-0.375 -0.34375 -1.203125 -0.34375q-0.375 0 -0.703125 0.078125q-0.3125 0.078125 -0.59375 0.1875q-0.28125 0.109375 -0.515625 0.25q-0.21875 0.140625 -0.40625 0.265625l-1.21875 -1.609375q0.328125 -0.234375 0.703125 -0.4375q0.390625 -0.203125 0.84375 -0.359375q0.453125 -0.15625 0.96875 -0.234375q0.53125 -0.09375 1.125 -0.09375q0.84375 0 1.5312805 0.1875q0.703125 0.1875 1.1875 0.53125q0.5 0.34375 0.765625 0.859375q0.265625 0.5 0.265625 1.140625zm4.0 4.40625l-2.8125 -4.265625l2.703125 0l1.453125 2.625l1.46875 -2.625l2.703125 0l-2.84375 4.265625l2.96875 4.46875l-2.703125 0l-1.59375 -2.828125l-1.609375 2.828125l-2.703125 0l2.96875 -4.46875zm13.578125 -4.40625q0 0.59375 -0.1875 1.078125q-0.1875 0.46875 -0.53125 0.828125q-0.328125 0.34375 -0.78125 0.59375q-0.4375 0.234375 -0.96875 0.359375l0 0.046875q1.390625 0.171875 2.09375 0.84375q0.71875 0.65625 0.71875 1.796875q0 0.75 -0.28125 1.390625q-0.265625 0.625 -0.828125 1.09375q-0.546875 0.46875 -1.40625 0.734375q-0.84375 0.265625 -1.984375 0.265625q-0.921875 0 -1.734375 -0.15625q-0.8125 -0.15625 -1.515625 -0.46875l0 -2.046875q0.34375 0.1875 0.734375 0.328125q0.390625 0.140625 0.78125 0.234375q0.390625 0.09375 0.765625 0.140625q0.390625 0.046875 0.71875 0.046875q0.671875 0 1.109375 -0.125q0.453125 -0.125 0.71875 -0.34375q0.265625 -0.234375 0.375 -0.546875q0.125 -0.3125 0.125 -0.6875q0 -0.359375 -0.15625 -0.640625q-0.140625 -0.28125 -0.46875 -0.484375q-0.3125 -0.203125 -0.84375 -0.3125q-0.515625 -0.109375 -1.28125 -0.109375l-0.8125 0l0 -1.6875l0.796875 0q0.71875 0 1.1875 -0.125q0.484375 -0.140625 0.765625 -0.359375q0.28125 -0.21875 0.390625 -0.515625q0.125 -0.296875 0.125 -0.640625q0 -0.609375 -0.375 -0.953125q-0.375 -0.34375 -1.203125 -0.34375q-0.375 0 -0.703125 0.078125q-0.3125 0.078125 -0.59375 0.1875q-0.28125 0.109375 -0.515625 0.25q-0.21875 0.140625 -0.40625 0.265625l-1.21875 -1.609375q0.328125 -0.234375 0.703125 -0.4375q0.390625 -0.203125 0.84375 -0.359375q0.453125 -0.15625 0.96875 -0.234375q0.53125 -0.09375 1.125 -0.09375q0.84375 0 1.53125 0.1875q0.703125 0.1875 1.1875 0.53125q0.5 0.34375 0.765625 0.859375q0.265625 0.5 0.265625 1.140625zm7.5625 11.40625l-6.640625 0l0 -1.09375l6.640625 0l0 1.09375zm6.359375 -2.53125l-2.421875 0l0 -6.609375q0 -0.203125 0 -0.484375q0.015625 -0.296875 0.015625 -0.59375q0.015625 -0.3125 0.03125 -0.625q0.015625 -0.3125 0.015625 -0.578125q-0.03125 0.046875 -0.125 0.140625q-0.09375 0.09375 -0.21875 0.21875q-0.109375 0.109375 -0.234375 0.234375q-0.125 0.109375 -0.25 0.203125l-1.3125 1.046875l-1.171875 -1.453125l3.6875 -2.921875l1.984375 0l0 11.421875z" fill-rule="nonzero"></path><path fill="#b7b7b7" d="m231.76083 148.42105l0 0c0 -3.1021423 2.5147705 -5.616913 5.6168976 -5.616913l114.466965 0c1.4897156 0 2.918396 0.5917816 3.9717712 1.6451569c1.0533752 1.0533752 1.6451416 2.4820557 1.6451416 3.971756l0 22.466965c0 3.102127 -2.5147705 5.616913 -5.616913 5.616913l-114.466965 0c-3.102127 0 -5.6168976 -2.5147858 -5.6168976 -5.616913z" fill-rule="evenodd"></path><path stroke="#000000" stroke-width="2.0" stroke-linejoin="round" stroke-linecap="butt" d="m231.76083 148.42105l0 0c0 -3.1021423 2.5147705 -5.616913 5.6168976 -5.616913l114.466965 0c1.4897156 0 2.918396 0.5917816 3.9717712 1.6451569c1.0533752 1.0533752 1.6451416 2.4820557 1.6451416 3.971756l0 22.466965c0 3.102127 -2.5147705 5.616913 -5.616913 5.616913l-114.466965 0c-3.102127 0 -5.6168976 -2.5147858 -5.6168976 -5.616913z" fill-rule="evenodd"></path><path fill="#000000" d="m268.81042 155.9364q-0.703125 0 -1.234375 0.28125q-0.53125 0.265625 -0.90625 0.765625q-0.359375 0.5 -0.546875 1.234375q-0.1875 0.71875 -0.1875 1.609375q0 0.921875 0.171875 1.640625q0.171875 0.703125 0.515625 1.1875q0.34375 0.484375 0.890625 0.75q0.546875 0.25 1.296875 0.25q0.6875 0 1.390625 -0.15625q0.703125 -0.15625 1.515625 -0.453125l0 2.03125q-0.375 0.15625 -0.75 0.265625q-0.359375 0.109375 -0.75 0.1875q-0.375 0.078125 -0.78125 0.109375q-0.390625 0.03125 -0.859375 0.03125q-1.3125 0 -2.28125 -0.421875q-0.96875 -0.421875 -1.609375 -1.1875q-0.625 -0.765625 -0.9375 -1.84375q-0.296875 -1.078125 -0.296875 -2.40625q0 -1.296875 0.34375 -2.375q0.359375 -1.078125 1.03125 -1.859375q0.6875 -0.78125 1.6875 -1.21875q1.0 -0.4375 2.296875 -0.4375q0.84375 0 1.703125 0.21875q0.859375 0.21875 1.640625 0.59375l-0.78125 1.96875q-0.640625 -0.3125 -1.296875 -0.53125q-0.640625 -0.234375 -1.265625 -0.234375zm15.0703125 3.84375q0 1.328125 -0.3125 2.421875q-0.296875 1.078125 -0.9375 1.859375q-0.625 0.765625 -1.59375 1.1875q-0.96875 0.421875 -2.28125 0.421875q-1.3125 0 -2.28125 -0.421875q-0.953125 -0.421875 -1.59375 -1.1875q-0.625 -0.78125 -0.9375 -1.875q-0.296875 -1.09375 -0.296875 -2.421875q0 -1.328125 0.296875 -2.40625q0.3125 -1.078125 0.9375 -1.84375q0.640625 -0.765625 1.609375 -1.1875q0.96875 -0.421875 2.28125 -0.421875q1.3125 0 2.265625 0.421875q0.96875 0.421875 1.59375 1.1875q0.640625 0.765625 0.9375 1.859375q0.3125 1.078125 0.3125 2.40625zm-7.75 0q0 0.90625 0.15625 1.625q0.15625 0.703125 0.484375 1.203125q0.328125 0.5 0.8125 0.765625q0.5 0.265625 1.171875 0.265625q0.703125 0 1.1875 -0.265625q0.5 -0.265625 0.8125 -0.765625q0.328125 -0.5 0.46875 -1.203125q0.15625 -0.71875 0.15625 -1.625q0 -0.890625 -0.15625 -1.609375q-0.140625 -0.71875 -0.46875 -1.21875q-0.3125 -0.5 -0.8125 -0.765625q-0.484375 -0.265625 -1.171875 -0.265625q-0.671875 0 -1.171875 0.265625q-0.5 0.265625 -0.828125 0.765625q-0.328125 0.5 -0.484375 1.21875q-0.15625 0.71875 -0.15625 1.609375zm19.765625 5.734375l-3.078125 0l-4.484375 -8.640625l-0.078125 0q0.046875 0.59375 0.078125 1.1875q0.03125 0.515625 0.046875 1.078125q0.03125 0.546875 0.03125 1.0l0 5.375l-2.171875 0l0 -11.421875l3.0625 0l4.484375 8.546875l0.046875 0q-0.03125 -0.59375 -0.0625 -1.171875q0 -0.25 -0.015625 -0.5q-0.015625 -0.265625 -0.03125 -0.53125q0 -0.265625 0 -0.5q0 -0.25 0 -0.4375l0 -5.40625l2.171875 0l0 11.421875zm7.7344055 -9.578125q-0.703125 0 -1.234375 0.28125q-0.53125 0.265625 -0.90625 0.765625q-0.359375 0.5 -0.546875 1.234375q-0.1875 0.71875 -0.1875 1.609375q0 0.921875 0.171875 1.640625q0.171875 0.703125 0.515625 1.1875q0.34375 0.484375 0.890625 0.75q0.546875 0.25 1.296875 0.25q0.6875 0 1.390625 -0.15625q0.703125 -0.15625 1.515625 -0.453125l0 2.03125q-0.375 0.15625 -0.75 0.265625q-0.359375 0.109375 -0.75 0.1875q-0.375 0.078125 -0.78125 0.109375q-0.390625 0.03125 -0.859375 0.03125q-1.3125 0 -2.28125 -0.421875q-0.96875 -0.421875 -1.609375 -1.1875q-0.625 -0.765625 -0.9375 -1.84375q-0.296875 -1.078125 -0.296875 -2.40625q0 -1.296875 0.34375 -2.375q0.359375 -1.078125 1.03125 -1.859375q0.6875 -0.78125 1.6875 -1.21875q1.0 -0.4375 2.296875 -0.4375q0.84375 0 1.703125 0.21875q0.859375 0.21875 1.640625 0.59375l-0.78125 1.96875q-0.640625 -0.3125 -1.296875 -0.53125q-0.640625 -0.234375 -1.265625 -0.234375zm11.8515625 9.578125l-0.78125 -2.71875l-3.9375 0l-0.78125 2.71875l-2.453125 0l3.71875 -11.46875l2.953125 0l3.734375 11.46875l-2.453125 0zm-1.34375 -4.75l-0.734375 -2.5q-0.046875 -0.140625 -0.140625 -0.453125q-0.09375 -0.328125 -0.203125 -0.71875q-0.09375 -0.390625 -0.1875 -0.78125q-0.09375 -0.390625 -0.140625 -0.65625q-0.03125 0.171875 -0.078125 0.40625q-0.046875 0.234375 -0.125 0.5q-0.0625 0.25 -0.140625 0.515625q-0.0625 0.265625 -0.125 0.5q-0.0625 0.234375 -0.109375 0.421875q-0.046875 0.171875 -0.078125 0.265625l-0.71875 2.5l2.78125 0zm9.3984375 4.75l-2.421875 0l0 -9.40625l-2.859375 0l0 -2.015625l8.140625 0l0 2.015625l-2.859375 0l0 9.40625z" fill-rule="nonzero"></path><path fill="#000000" fill-opacity="0.0" d="m85.740486 108.60466l208.8819 34.204727" fill-rule="evenodd"></path><path stroke="#000000" stroke-width="2.0" stroke-linejoin="round" stroke-linecap="butt" d="m85.740486 108.60466l197.03961 32.265533" fill-rule="evenodd"></path><path fill="#000000" stroke="#000000" stroke-width="2.0" stroke-linecap="butt" d="m282.24625 144.13023l9.490753 -1.793335l-8.423065 -4.7267456z" fill-rule="evenodd"></path><path fill="#000000" fill-opacity="0.0" d="m225.31529 108.60466l69.291336 34.204727" fill-rule="evenodd"></path><path stroke="#000000" stroke-width="2.0" stroke-linejoin="round" stroke-linecap="butt" d="m225.31529 108.60466l58.53096 28.893005" fill-rule="evenodd"></path><path fill="#000000" stroke="#000000" stroke-width="2.0" stroke-linecap="butt" d="m282.384 140.45988l9.600861 1.0552979l-6.676361 -6.979721z" fill-rule="evenodd"></path><path fill="#000000" fill-opacity="0.0" d="m364.89075 109.80282l-70.26773 33.00788" fill-rule="evenodd"></path><path stroke="#000000" stroke-width="2.0" stroke-linejoin="round" stroke-linecap="butt" d="m364.89075 109.80282l-59.406372 27.905815" fill-rule="evenodd"></path><path fill="#000000" stroke="#000000" stroke-width="2.0" stroke-linecap="butt" d="m304.07983 134.71863l-6.810425 6.8489532l9.619507 -0.86894226z" fill-rule="evenodd"></path><path fill="#000000" fill-opacity="0.0" d="m504.46555 109.80282l-209.85828 33.00788" fill-rule="evenodd"></path><path stroke="#000000" stroke-width="2.0" stroke-linejoin="round" stroke-linecap="butt" d="m504.46555 109.80282l-198.004 31.143364" fill-rule="evenodd"></path><path fill="#000000" stroke="#000000" stroke-width="2.0" stroke-linecap="butt" d="m305.94827 137.68283l-8.452698 4.6735687l9.479248 1.8531189z" fill-rule="evenodd"></path><path fill="#000000" fill-opacity="0.0" d="m294.61154 8.356956l-208.88188 32.346455" fill-rule="evenodd"></path><path stroke="#000000" stroke-width="2.0" stroke-linejoin="round" stroke-linecap="butt" d="m294.61154 8.356956l-197.02322 30.510078" fill-rule="evenodd"></path><path fill="#000000" stroke="#000000" stroke-width="2.0" stroke-linecap="butt" d="m97.08278 35.60248l-8.463753 4.653496l9.474823 1.8756142z" fill-rule="evenodd"></path><path fill="#000000" fill-opacity="0.0" d="m294.61154 8.356956l-69.291336 32.346455" fill-rule="evenodd"></path><path stroke="#000000" stroke-width="2.0" stroke-linejoin="round" stroke-linecap="butt" d="m294.61154 8.356956l-58.41777 27.270477" fill-rule="evenodd"></path><path fill="#000000" stroke="#000000" stroke-width="2.0" stroke-linecap="butt" d="m234.79642 32.634064l-6.8268585 6.8325844l9.621582 -0.84584427z" fill-rule="evenodd"></path><path fill="#000000" fill-opacity="0.0" d="m294.61154 8.356956l70.26773 67.74803" fill-rule="evenodd"></path><path stroke="#000000" stroke-width="2.0" stroke-linejoin="round" stroke-linecap="butt" d="m294.61154 8.356956l61.628998 59.419052" fill-rule="evenodd"></path><path fill="#000000" stroke="#000000" stroke-width="2.0" stroke-linecap="butt" d="m353.94763 70.15416l8.826813 3.9214706l-4.2410583 -8.67778z" fill-rule="evenodd"></path><path fill="#000000" fill-opacity="0.0" d="m294.61154 8.356956l209.85828 32.346455" fill-rule="evenodd"></path><path stroke="#000000" stroke-width="2.0" stroke-linejoin="round" stroke-linecap="butt" d="m294.61154 8.356956l197.99832 30.518425" fill-rule="evenodd"></path><path fill="#000000" stroke="#000000" stroke-width="2.0" stroke-linecap="butt" d="m492.10663 42.140293l9.473511 -1.8822823l-8.467041 -4.647537z" fill-rule="evenodd"></path><path fill="#000000" fill-opacity="0.0" d="m294.6112 176.50493l0 6.582672" fill-rule="evenodd"></path><path stroke="#000000" stroke-width="2.0" stroke-linejoin="round" stroke-linecap="butt" d="m294.6112 176.50493l0 6.582672" fill-rule="evenodd"></path></g></svg>

